M48
;DRILL file {KiCad 4.0.3-stable} date 10/13/16 15:01:17
;FORMAT={-:-/ absolute / metric / decimal}
FMAT,2
METRIC,TZ
T1C0.800
T2C0.900
T3C0.996
T4C1.001
T5C1.016
T6C1.199
T7C1.500
%
G90
G05
M71
T1
X116.205Y-85.09
X116.205Y-90.09
X133.35Y-53.34
X133.35Y-91.44
X135.85Y-53.34
X135.85Y-91.44
X136.Y-60.
X136.Y-84.
X138.5Y-60.
X138.5Y-84.
X146.685Y-68.58
X146.685Y-76.2
X147.955Y-47.03
X147.955Y-49.53
X149.Y-94.5
X149.Y-97.
X149.225Y-68.58
X149.225Y-76.2
X151.765Y-68.58
X151.765Y-76.2
X154.305Y-68.58
X154.305Y-76.2
X173.355Y-68.58
X173.355Y-76.2
X175.855Y-68.58
X175.855Y-76.2
T2
X132.585Y-68.58
X132.585Y-76.2
X140.335Y-68.58
X140.335Y-76.2
X155.02Y-52.705
X155.02Y-90.805
X160.02Y-52.705
X160.02Y-90.805
T4
X124.46Y-53.34
X124.46Y-63.5
X124.46Y-81.28
X124.46Y-91.44
X128.905Y-53.34
X128.905Y-63.5
X128.905Y-81.28
X128.905Y-91.44
X142.5Y-53.5
X142.5Y-63.66
X142.5Y-81.34
X142.5Y-91.5
X147.955Y-53.34
X147.955Y-63.5
X149.Y-81.5
X149.Y-91.66
X160.02Y-68.58
X160.02Y-76.2
X170.18Y-68.58
X170.18Y-76.2
X175.895Y-62.23
X175.895Y-83.82
X186.055Y-62.23
X186.055Y-83.82
T5
X116.84Y-96.52
X119.38Y-96.52
T6
X127.997Y-95.5
X128.Y-48.5
X132.999Y-95.5
X133.001Y-48.5
X138.Y-95.5
X138.003Y-48.5
X154.997Y-95.5
X155.Y-48.5
X159.999Y-95.5
X160.001Y-48.5
X165.Y-95.5
X165.003Y-48.5
T7
X116.205Y-72.39
X121.205Y-67.39
X121.205Y-69.89
X121.205Y-74.39
X121.205Y-77.39
X182.325Y-68.025
X182.325Y-71.025
X182.325Y-75.525
X182.325Y-78.025
X187.325Y-73.025
T3
X171.931Y-47.65G85X173.133Y-47.65
G05
X171.931Y-57.76G85X173.133Y-57.76
G05
X171.931Y-86.385G85X173.133Y-86.385
G05
X171.931Y-96.495G85X173.133Y-96.495
G05
X176.53Y-53.306G85X176.53Y-52.104
G05
X176.53Y-92.041G85X176.53Y-90.839
G05
T0
M30
