G04 #@! TF.FileFunction,Copper,L1,Top,Signal*
%FSLAX46Y46*%
G04 Gerber Fmt 4.6, Leading zero omitted, Abs format (unit mm)*
G04 Created by KiCad (PCBNEW 4.0.3-stable) date 10/13/16 15:00:55*
%MOMM*%
%LPD*%
G01*
G04 APERTURE LIST*
%ADD10C,0.100000*%
%ADD11R,1.300000X1.300000*%
%ADD12C,1.300000*%
%ADD13R,1.400000X1.400000*%
%ADD14C,1.400000*%
%ADD15R,2.032000X2.032000*%
%ADD16O,2.032000X2.032000*%
%ADD17O,3.197860X1.998980*%
%ADD18O,1.998980X3.197860*%
%ADD19C,1.998980*%
%ADD20C,2.499360*%
%ADD21O,1.600000X1.600000*%
%ADD22C,3.000000*%
%ADD23C,2.000000*%
%ADD24C,1.000000*%
%ADD25C,0.600000*%
%ADD26C,0.254000*%
G04 APERTURE END LIST*
D10*
D11*
X116205000Y-85090000D03*
D12*
X116205000Y-90090000D03*
X138500000Y-60000000D03*
D11*
X136000000Y-60000000D03*
D13*
X140335000Y-68580000D03*
D14*
X132585000Y-68580000D03*
D11*
X173355000Y-68580000D03*
D12*
X175855000Y-68580000D03*
D13*
X160020000Y-52705000D03*
D14*
X155020000Y-52705000D03*
D11*
X133350000Y-53340000D03*
D12*
X135850000Y-53340000D03*
D11*
X147955000Y-49530000D03*
D12*
X147955000Y-47030000D03*
X138500000Y-84000000D03*
D11*
X136000000Y-84000000D03*
D13*
X140335000Y-76200000D03*
D14*
X132585000Y-76200000D03*
D11*
X173355000Y-76200000D03*
D12*
X175855000Y-76200000D03*
D13*
X160020000Y-90805000D03*
D14*
X155020000Y-90805000D03*
D11*
X133350000Y-91440000D03*
D12*
X135850000Y-91440000D03*
D11*
X149000000Y-94500000D03*
D12*
X149000000Y-97000000D03*
D15*
X119380000Y-96520000D03*
D16*
X116840000Y-96520000D03*
D17*
X172532040Y-47650400D03*
D18*
X176530000Y-52705000D03*
D17*
X172532040Y-57759600D03*
X172532040Y-86385400D03*
D18*
X176530000Y-91440000D03*
D17*
X172532040Y-96494600D03*
D19*
X124460000Y-53340000D03*
X124460000Y-63500000D03*
X128905000Y-53340000D03*
X128905000Y-63500000D03*
X142500000Y-53500000D03*
X142500000Y-63660000D03*
X170180000Y-68580000D03*
X160020000Y-68580000D03*
X186055000Y-62230000D03*
X175895000Y-62230000D03*
X147955000Y-63500000D03*
X147955000Y-53340000D03*
X124460000Y-91440000D03*
X124460000Y-81280000D03*
X128905000Y-91440000D03*
X128905000Y-81280000D03*
X142500000Y-91500000D03*
X142500000Y-81340000D03*
X170180000Y-76200000D03*
X160020000Y-76200000D03*
X186055000Y-83820000D03*
X175895000Y-83820000D03*
X149000000Y-81500000D03*
X149000000Y-91660000D03*
D20*
X160001260Y-48500000D03*
X165002520Y-48500000D03*
X155000000Y-48500000D03*
X133001260Y-48500000D03*
X138002520Y-48500000D03*
X128000000Y-48500000D03*
X159998740Y-95500000D03*
X154997480Y-95500000D03*
X165000000Y-95500000D03*
X132998740Y-95500000D03*
X127997480Y-95500000D03*
X138000000Y-95500000D03*
D21*
X154305000Y-68580000D03*
X151765000Y-68580000D03*
X149225000Y-68580000D03*
X146685000Y-68580000D03*
X146685000Y-76200000D03*
X149225000Y-76200000D03*
X151765000Y-76200000D03*
X154305000Y-76200000D03*
D22*
X169500000Y-62500000D03*
X169500000Y-82000000D03*
X126365000Y-68580000D03*
X126365000Y-76200000D03*
D23*
X116205000Y-72390000D03*
X121205000Y-67390000D03*
X121205000Y-77390000D03*
X121205000Y-69890000D03*
X121205000Y-74390000D03*
X187325000Y-73025000D03*
X182325000Y-78025000D03*
X182325000Y-68025000D03*
X182325000Y-75525000D03*
X182325000Y-71025000D03*
D24*
X119380000Y-96520000D02*
X119380000Y-100380000D01*
X165000000Y-79000000D02*
X165000000Y-74500000D01*
X165000000Y-74500000D02*
X163000000Y-72500000D01*
X163000000Y-72500000D02*
X158005000Y-72500000D01*
X158005000Y-72500000D02*
X154305000Y-76200000D01*
X165000000Y-84000000D02*
X165000000Y-79000000D01*
X168500000Y-87500000D02*
X165000000Y-84000000D01*
X168500000Y-97000000D02*
X168500000Y-87500000D01*
X163000000Y-102500000D02*
X168500000Y-97000000D01*
X121500000Y-102500000D02*
X163000000Y-102500000D01*
X119380000Y-100380000D02*
X121500000Y-102500000D01*
X119380000Y-96520000D02*
X119380000Y-88265000D01*
X119380000Y-88265000D02*
X116205000Y-85090000D01*
X124460000Y-63500000D02*
X117000000Y-63500000D01*
X113500000Y-82385000D02*
X116205000Y-85090000D01*
X113500000Y-67000000D02*
X113500000Y-82385000D01*
X117000000Y-63500000D02*
X113500000Y-67000000D01*
X124460000Y-81280000D02*
X122220000Y-81280000D01*
X122220000Y-81280000D02*
X118410000Y-85090000D01*
X118410000Y-85090000D02*
X116205000Y-85090000D01*
X146685000Y-68580000D02*
X146685000Y-68185000D01*
D25*
X135850000Y-53340000D02*
X135850000Y-53150000D01*
D24*
X142500000Y-53500000D02*
X142500000Y-48500000D01*
X124460000Y-48040000D02*
X124460000Y-53340000D01*
X128500000Y-44000000D02*
X124460000Y-48040000D01*
X141500000Y-44000000D02*
X128500000Y-44000000D01*
X142500000Y-45000000D02*
X141500000Y-44000000D01*
X142500000Y-48500000D02*
X142500000Y-45000000D01*
X142500000Y-53500000D02*
X139500000Y-53500000D01*
X136000000Y-60500000D02*
X136000000Y-60000000D01*
X136000000Y-57000000D02*
X136000000Y-60500000D01*
X139500000Y-53500000D02*
X136000000Y-57000000D01*
D25*
X124460000Y-53340000D02*
X128905000Y-53340000D01*
D24*
X133001260Y-48500000D02*
X133001260Y-52991260D01*
X133001260Y-52991260D02*
X133350000Y-53340000D01*
X140335000Y-68580000D02*
X140580000Y-68580000D01*
X140580000Y-68580000D02*
X143000000Y-71000000D01*
X149225000Y-69775000D02*
X149225000Y-68580000D01*
X148000000Y-71000000D02*
X149225000Y-69775000D01*
X143000000Y-71000000D02*
X148000000Y-71000000D01*
X142500000Y-63660000D02*
X140970000Y-67945000D01*
X140970000Y-67945000D02*
X140335000Y-68580000D01*
X142500000Y-63660000D02*
X134500000Y-63500000D01*
X132500000Y-54500000D02*
X133350000Y-53650000D01*
X132500000Y-62500000D02*
X132500000Y-54500000D01*
X133500000Y-63500000D02*
X132500000Y-62500000D01*
X134500000Y-63500000D02*
X133500000Y-63500000D01*
X133350000Y-53650000D02*
X133350000Y-53340000D01*
X126365000Y-68580000D02*
X125920000Y-68580000D01*
X125920000Y-68580000D02*
X123500000Y-71000000D01*
X123500000Y-75095000D02*
X121205000Y-77390000D01*
X123500000Y-71000000D02*
X123500000Y-75095000D01*
X126365000Y-68580000D02*
X126365000Y-66040000D01*
X126365000Y-66040000D02*
X128905000Y-63500000D01*
X126365000Y-68580000D02*
X132585000Y-68580000D01*
D25*
X126365000Y-68580000D02*
X126365000Y-67135000D01*
D24*
X173355000Y-68580000D02*
X170180000Y-68580000D01*
X169500000Y-62500000D02*
X175625000Y-62500000D01*
X175625000Y-62500000D02*
X175895000Y-62230000D01*
X175895000Y-52070000D02*
X176530000Y-52705000D01*
X175895000Y-62230000D02*
X175895000Y-53340000D01*
X175895000Y-53340000D02*
X176530000Y-52705000D01*
X175855000Y-68580000D02*
X175855000Y-62270000D01*
X175855000Y-62270000D02*
X175895000Y-62230000D01*
X182325000Y-68025000D02*
X176410000Y-68025000D01*
X176410000Y-68025000D02*
X175855000Y-68580000D01*
X160020000Y-52705000D02*
X160020000Y-68580000D01*
X160020000Y-68580000D02*
X154305000Y-68580000D01*
X160020000Y-52705000D02*
X160080000Y-48578740D01*
X160080000Y-48578740D02*
X160001260Y-48500000D01*
X155000000Y-48500000D02*
X154940000Y-52625000D01*
X154940000Y-52625000D02*
X155020000Y-52705000D01*
X147955000Y-63500000D02*
X148500000Y-63500000D01*
X148500000Y-63500000D02*
X155020000Y-56980000D01*
X155020000Y-56980000D02*
X155020000Y-52705000D01*
X147955000Y-63500000D02*
X149000000Y-63500000D01*
X151765000Y-66265000D02*
X151765000Y-68580000D01*
X149000000Y-63500000D02*
X151765000Y-66265000D01*
X147955000Y-49530000D02*
X147955000Y-53340000D01*
X136000000Y-85000000D02*
X142500000Y-91500000D01*
X136000000Y-84000000D02*
X136000000Y-85000000D01*
X124460000Y-96460000D02*
X124460000Y-96960000D01*
X140970000Y-98030000D02*
X139500000Y-99500000D01*
X139500000Y-99500000D02*
X127000000Y-99500000D01*
X140970000Y-96000000D02*
X140970000Y-98030000D01*
X124460000Y-96460000D02*
X124460000Y-91440000D01*
X124460000Y-96960000D02*
X127000000Y-99500000D01*
X124460000Y-91440000D02*
X128905000Y-91440000D01*
X140970000Y-96530000D02*
X140970000Y-96000000D01*
X140970000Y-96000000D02*
X142500000Y-91500000D01*
X133350000Y-91440000D02*
X133350000Y-81650000D01*
X138800000Y-76200000D02*
X140335000Y-76200000D01*
X133350000Y-81650000D02*
X138800000Y-76200000D01*
X142500000Y-81340000D02*
X142500000Y-78365000D01*
X142500000Y-78365000D02*
X140335000Y-76200000D01*
X132998740Y-95500000D02*
X132998740Y-91791260D01*
X132998740Y-91791260D02*
X133350000Y-91440000D01*
X146685000Y-76200000D02*
X140335000Y-76200000D01*
X140335000Y-76200000D02*
X140970000Y-76835000D01*
X126365000Y-76200000D02*
X132585000Y-76200000D01*
X128905000Y-81280000D02*
X128905000Y-78740000D01*
X128905000Y-78740000D02*
X126365000Y-76200000D01*
X121205000Y-67390000D02*
X120110000Y-67390000D01*
X123065000Y-79500000D02*
X126365000Y-76200000D01*
X120000000Y-79500000D02*
X123065000Y-79500000D01*
X118500000Y-78000000D02*
X120000000Y-79500000D01*
X118500000Y-69000000D02*
X118500000Y-78000000D01*
X120110000Y-67390000D02*
X118500000Y-69000000D01*
D25*
X126365000Y-76200000D02*
X126365000Y-75865000D01*
D24*
X170180000Y-76200000D02*
X173355000Y-76200000D01*
X169500000Y-82000000D02*
X171500000Y-82000000D01*
X173320000Y-83820000D02*
X175895000Y-83820000D01*
X171500000Y-82000000D02*
X173320000Y-83820000D01*
X175895000Y-83820000D02*
X175895000Y-90805000D01*
X175895000Y-90805000D02*
X176530000Y-91440000D01*
X175895000Y-83820000D02*
X175895000Y-76240000D01*
X175895000Y-76240000D02*
X175855000Y-76200000D01*
X175855000Y-76200000D02*
X178200000Y-76200000D01*
X180025000Y-78025000D02*
X182325000Y-78025000D01*
X178200000Y-76200000D02*
X180025000Y-78025000D01*
X160020000Y-90805000D02*
X160020000Y-76200000D01*
X160020000Y-76200000D02*
X159800000Y-76200000D01*
X159800000Y-76200000D02*
X157000000Y-79000000D01*
X157000000Y-79000000D02*
X154565000Y-79000000D01*
X154565000Y-79000000D02*
X151765000Y-76200000D01*
X160020000Y-90805000D02*
X159920000Y-95421260D01*
X159920000Y-95421260D02*
X159998740Y-95500000D01*
X149000000Y-81500000D02*
X149000000Y-76425000D01*
X149000000Y-76425000D02*
X149225000Y-76200000D01*
X155020000Y-90805000D02*
X155020000Y-88520000D01*
X155020000Y-88520000D02*
X149000000Y-81675000D01*
X149000000Y-81675000D02*
X149000000Y-81500000D01*
X155020000Y-90805000D02*
X154920000Y-95422520D01*
X154920000Y-95422520D02*
X154997480Y-95500000D01*
X149000000Y-94500000D02*
X149000000Y-91660000D01*
D26*
G36*
X193873981Y-105373000D02*
X109627988Y-105373000D01*
X109693647Y-96902946D01*
X115234017Y-96902946D01*
X115502812Y-97488379D01*
X115975182Y-97926385D01*
X116457056Y-98125975D01*
X116713000Y-98006836D01*
X116713000Y-96647000D01*
X115352633Y-96647000D01*
X115234017Y-96902946D01*
X109693647Y-96902946D01*
X109699584Y-96137054D01*
X115234017Y-96137054D01*
X115352633Y-96393000D01*
X116713000Y-96393000D01*
X116713000Y-95033164D01*
X116457056Y-94914025D01*
X115975182Y-95113615D01*
X115502812Y-95551621D01*
X115234017Y-96137054D01*
X109699584Y-96137054D01*
X109739491Y-90989016D01*
X115485590Y-90989016D01*
X115541271Y-91219611D01*
X116024078Y-91387622D01*
X116534428Y-91358083D01*
X116868729Y-91219611D01*
X116924410Y-90989016D01*
X116205000Y-90269605D01*
X115485590Y-90989016D01*
X109739491Y-90989016D01*
X109747863Y-89909078D01*
X114907378Y-89909078D01*
X114936917Y-90419428D01*
X115075389Y-90753729D01*
X115305984Y-90809410D01*
X116025395Y-90090000D01*
X116384605Y-90090000D01*
X117104016Y-90809410D01*
X117334611Y-90753729D01*
X117502622Y-90270922D01*
X117473083Y-89760572D01*
X117334611Y-89426271D01*
X117104016Y-89370590D01*
X116384605Y-90090000D01*
X116025395Y-90090000D01*
X115305984Y-89370590D01*
X115075389Y-89426271D01*
X114907378Y-89909078D01*
X109747863Y-89909078D01*
X109753429Y-89190984D01*
X115485590Y-89190984D01*
X116205000Y-89910395D01*
X116924410Y-89190984D01*
X116868729Y-88960389D01*
X116385922Y-88792378D01*
X115875572Y-88821917D01*
X115541271Y-88960389D01*
X115485590Y-89190984D01*
X109753429Y-89190984D01*
X109925453Y-67000000D01*
X112365000Y-67000000D01*
X112365000Y-82385000D01*
X112451397Y-82819346D01*
X112697434Y-83187566D01*
X114907560Y-85397692D01*
X114907560Y-85740000D01*
X114951838Y-85975317D01*
X115090910Y-86191441D01*
X115303110Y-86336431D01*
X115555000Y-86387440D01*
X115897308Y-86387440D01*
X118245000Y-88735132D01*
X118245000Y-94878951D01*
X118128683Y-94900838D01*
X117912559Y-95039910D01*
X117801160Y-95202948D01*
X117704818Y-95113615D01*
X117222944Y-94914025D01*
X116967000Y-95033164D01*
X116967000Y-96393000D01*
X116987000Y-96393000D01*
X116987000Y-96647000D01*
X116967000Y-96647000D01*
X116967000Y-98006836D01*
X117222944Y-98125975D01*
X117704818Y-97926385D01*
X117802398Y-97835903D01*
X117899910Y-97987441D01*
X118112110Y-98132431D01*
X118245000Y-98159342D01*
X118245000Y-100380000D01*
X118331397Y-100814346D01*
X118577434Y-101182566D01*
X120697434Y-103302566D01*
X121065654Y-103548603D01*
X121500000Y-103635000D01*
X163000000Y-103635000D01*
X163434346Y-103548603D01*
X163802566Y-103302566D01*
X169302566Y-97802566D01*
X169548604Y-97434345D01*
X169635000Y-97000000D01*
X169635000Y-96874954D01*
X170342981Y-96874954D01*
X170373927Y-97002759D01*
X170687038Y-97560556D01*
X171189775Y-97956071D01*
X171805600Y-98129090D01*
X172405040Y-98129090D01*
X172405040Y-96621600D01*
X172659040Y-96621600D01*
X172659040Y-98129090D01*
X173258480Y-98129090D01*
X173874305Y-97956071D01*
X174377042Y-97560556D01*
X174690153Y-97002759D01*
X174721099Y-96874954D01*
X174601745Y-96621600D01*
X172659040Y-96621600D01*
X172405040Y-96621600D01*
X170462335Y-96621600D01*
X170342981Y-96874954D01*
X169635000Y-96874954D01*
X169635000Y-96114246D01*
X170342981Y-96114246D01*
X170462335Y-96367600D01*
X172405040Y-96367600D01*
X172405040Y-94860110D01*
X172659040Y-94860110D01*
X172659040Y-96367600D01*
X174601745Y-96367600D01*
X174721099Y-96114246D01*
X174690153Y-95986441D01*
X174377042Y-95428644D01*
X173874305Y-95033129D01*
X173258480Y-94860110D01*
X172659040Y-94860110D01*
X172405040Y-94860110D01*
X171805600Y-94860110D01*
X171189775Y-95033129D01*
X170687038Y-95428644D01*
X170373927Y-95986441D01*
X170342981Y-96114246D01*
X169635000Y-96114246D01*
X169635000Y-87500000D01*
X169548603Y-87065654D01*
X169433613Y-86893559D01*
X169348217Y-86765754D01*
X170342981Y-86765754D01*
X170373927Y-86893559D01*
X170687038Y-87451356D01*
X171189775Y-87846871D01*
X171805600Y-88019890D01*
X172405040Y-88019890D01*
X172405040Y-86512400D01*
X170462335Y-86512400D01*
X170342981Y-86765754D01*
X169348217Y-86765754D01*
X169302566Y-86697433D01*
X168610179Y-86005046D01*
X170342981Y-86005046D01*
X170462335Y-86258400D01*
X172405040Y-86258400D01*
X172405040Y-84750910D01*
X171805600Y-84750910D01*
X171189775Y-84923929D01*
X170687038Y-85319444D01*
X170373927Y-85877241D01*
X170342981Y-86005046D01*
X168610179Y-86005046D01*
X166135000Y-83529868D01*
X166135000Y-82422815D01*
X167364630Y-82422815D01*
X167688980Y-83207800D01*
X168289041Y-83808909D01*
X169073459Y-84134628D01*
X169922815Y-84135370D01*
X170707800Y-83811020D01*
X171207279Y-83312411D01*
X172517434Y-84622566D01*
X172709514Y-84750910D01*
X172659040Y-84750910D01*
X172659040Y-86258400D01*
X172679040Y-86258400D01*
X172679040Y-86512400D01*
X172659040Y-86512400D01*
X172659040Y-88019890D01*
X173258480Y-88019890D01*
X173874305Y-87846871D01*
X174377042Y-87451356D01*
X174690153Y-86893559D01*
X174721099Y-86765754D01*
X174601746Y-86512402D01*
X174760000Y-86512402D01*
X174760000Y-90805000D01*
X174846397Y-91239346D01*
X174895510Y-91312849D01*
X174895510Y-92083205D01*
X175019928Y-92708697D01*
X175374241Y-93238964D01*
X175904508Y-93593277D01*
X176530000Y-93717695D01*
X177155492Y-93593277D01*
X177685759Y-93238964D01*
X178040072Y-92708697D01*
X178164490Y-92083205D01*
X178164490Y-90796795D01*
X178040072Y-90171303D01*
X177685759Y-89641036D01*
X177155492Y-89286723D01*
X177030000Y-89261761D01*
X177030000Y-84996484D01*
X177054363Y-84972163D01*
X185082443Y-84972163D01*
X185181042Y-85238965D01*
X185790582Y-85465401D01*
X186440377Y-85441341D01*
X186928958Y-85238965D01*
X187027557Y-84972163D01*
X186055000Y-83999605D01*
X185082443Y-84972163D01*
X177054363Y-84972163D01*
X177279846Y-84747073D01*
X177529206Y-84146547D01*
X177529722Y-83555582D01*
X184409599Y-83555582D01*
X184433659Y-84205377D01*
X184636035Y-84693958D01*
X184902837Y-84792557D01*
X185875395Y-83820000D01*
X186234605Y-83820000D01*
X187207163Y-84792557D01*
X187473965Y-84693958D01*
X187700401Y-84084418D01*
X187676341Y-83434623D01*
X187473965Y-82946042D01*
X187207163Y-82847443D01*
X186234605Y-83820000D01*
X185875395Y-83820000D01*
X184902837Y-82847443D01*
X184636035Y-82946042D01*
X184409599Y-83555582D01*
X177529722Y-83555582D01*
X177529774Y-83496306D01*
X177281462Y-82895345D01*
X177054351Y-82667837D01*
X185082443Y-82667837D01*
X186055000Y-83640395D01*
X187027557Y-82667837D01*
X186928958Y-82401035D01*
X186319418Y-82174599D01*
X185669623Y-82198659D01*
X185181042Y-82401035D01*
X185082443Y-82667837D01*
X177054351Y-82667837D01*
X177030000Y-82643444D01*
X177030000Y-77335000D01*
X177729868Y-77335000D01*
X179222434Y-78827566D01*
X179590654Y-79073603D01*
X180025000Y-79160000D01*
X181147796Y-79160000D01*
X181397637Y-79410278D01*
X181998352Y-79659716D01*
X182648795Y-79660284D01*
X183249943Y-79411894D01*
X183710278Y-78952363D01*
X183959716Y-78351648D01*
X183960284Y-77701205D01*
X183711894Y-77100057D01*
X183387241Y-76774836D01*
X183710278Y-76452363D01*
X183959716Y-75851648D01*
X183960284Y-75201205D01*
X183711894Y-74600057D01*
X183290107Y-74177532D01*
X186352073Y-74177532D01*
X186450736Y-74444387D01*
X187060461Y-74670908D01*
X187710460Y-74646856D01*
X188199264Y-74444387D01*
X188297927Y-74177532D01*
X187325000Y-73204605D01*
X186352073Y-74177532D01*
X183290107Y-74177532D01*
X183252363Y-74139722D01*
X182651648Y-73890284D01*
X182001205Y-73889716D01*
X181400057Y-74138106D01*
X180939722Y-74597637D01*
X180690284Y-75198352D01*
X180689716Y-75848795D01*
X180938106Y-76449943D01*
X181262759Y-76775164D01*
X181147722Y-76890000D01*
X180495132Y-76890000D01*
X179002566Y-75397434D01*
X178882731Y-75317363D01*
X178634346Y-75151397D01*
X178200000Y-75065000D01*
X176472427Y-75065000D01*
X176111724Y-74915223D01*
X175600519Y-74914777D01*
X175128057Y-75109995D01*
X174766265Y-75471155D01*
X174652440Y-75745276D01*
X174652440Y-75550000D01*
X174608162Y-75314683D01*
X174469090Y-75098559D01*
X174256890Y-74953569D01*
X174005000Y-74902560D01*
X172705000Y-74902560D01*
X172469683Y-74946838D01*
X172286054Y-75065000D01*
X171356484Y-75065000D01*
X171107073Y-74815154D01*
X170506547Y-74565794D01*
X169856306Y-74565226D01*
X169255345Y-74813538D01*
X168795154Y-75272927D01*
X168545794Y-75873453D01*
X168545226Y-76523694D01*
X168793538Y-77124655D01*
X169252927Y-77584846D01*
X169853453Y-77834206D01*
X170503694Y-77834774D01*
X171104655Y-77586462D01*
X171356556Y-77335000D01*
X172290025Y-77335000D01*
X172453110Y-77446431D01*
X172705000Y-77497440D01*
X174005000Y-77497440D01*
X174240317Y-77453162D01*
X174456441Y-77314090D01*
X174601431Y-77101890D01*
X174652440Y-76850000D01*
X174652440Y-76654540D01*
X174760000Y-76914854D01*
X174760000Y-82643516D01*
X174718444Y-82685000D01*
X173790132Y-82685000D01*
X172302566Y-81197434D01*
X172270946Y-81176306D01*
X171934346Y-80951397D01*
X171500000Y-80865000D01*
X171341100Y-80865000D01*
X171311020Y-80792200D01*
X170710959Y-80191091D01*
X169926541Y-79865372D01*
X169077185Y-79864630D01*
X168292200Y-80188980D01*
X167691091Y-80789041D01*
X167365372Y-81573459D01*
X167364630Y-82422815D01*
X166135000Y-82422815D01*
X166135000Y-74500000D01*
X166048603Y-74065654D01*
X165802566Y-73697434D01*
X164865593Y-72760461D01*
X185679092Y-72760461D01*
X185703144Y-73410460D01*
X185905613Y-73899264D01*
X186172468Y-73997927D01*
X187145395Y-73025000D01*
X187504605Y-73025000D01*
X188477532Y-73997927D01*
X188744387Y-73899264D01*
X188970908Y-73289539D01*
X188946856Y-72639540D01*
X188744387Y-72150736D01*
X188477532Y-72052073D01*
X187504605Y-73025000D01*
X187145395Y-73025000D01*
X186172468Y-72052073D01*
X185905613Y-72150736D01*
X185679092Y-72760461D01*
X164865593Y-72760461D01*
X163802566Y-71697434D01*
X163665146Y-71605613D01*
X163434346Y-71451397D01*
X163000000Y-71365000D01*
X158005000Y-71365000D01*
X157570654Y-71451397D01*
X157339854Y-71605613D01*
X157202434Y-71697434D01*
X154127717Y-74772151D01*
X153755849Y-74846120D01*
X153290302Y-75157189D01*
X153035000Y-75539275D01*
X152779698Y-75157189D01*
X152314151Y-74846120D01*
X151765000Y-74736887D01*
X151215849Y-74846120D01*
X150750302Y-75157189D01*
X150495000Y-75539275D01*
X150239698Y-75157189D01*
X149774151Y-74846120D01*
X149225000Y-74736887D01*
X148675849Y-74846120D01*
X148210302Y-75157189D01*
X147955000Y-75539275D01*
X147699698Y-75157189D01*
X147234151Y-74846120D01*
X146685000Y-74736887D01*
X146135849Y-74846120D01*
X145808272Y-75065000D01*
X141509669Y-75065000D01*
X141499090Y-75048559D01*
X141286890Y-74903569D01*
X141035000Y-74852560D01*
X139635000Y-74852560D01*
X139399683Y-74896838D01*
X139183559Y-75035910D01*
X139163683Y-75065000D01*
X138800000Y-75065000D01*
X138365654Y-75151397D01*
X138117269Y-75317363D01*
X137997434Y-75397434D01*
X132547434Y-80847434D01*
X132301397Y-81215654D01*
X132215000Y-81650000D01*
X132215000Y-90375025D01*
X132103569Y-90538110D01*
X132052560Y-90790000D01*
X132052560Y-91203627D01*
X131950137Y-91356914D01*
X131863740Y-91791260D01*
X131863740Y-93970003D01*
X131401918Y-94431021D01*
X131114388Y-95123469D01*
X131113734Y-95873241D01*
X131400054Y-96566191D01*
X131929761Y-97096822D01*
X132622209Y-97384352D01*
X133371981Y-97385006D01*
X134064931Y-97098686D01*
X134330991Y-96833089D01*
X136846517Y-96833089D01*
X136975725Y-97125859D01*
X137675883Y-97394071D01*
X138425384Y-97373928D01*
X139024275Y-97125859D01*
X139153483Y-96833089D01*
X138000000Y-95679605D01*
X136846517Y-96833089D01*
X134330991Y-96833089D01*
X134595562Y-96568979D01*
X134883092Y-95876531D01*
X134883703Y-95175883D01*
X136105929Y-95175883D01*
X136126072Y-95925384D01*
X136374141Y-96524275D01*
X136666911Y-96653483D01*
X137820395Y-95500000D01*
X136666911Y-94346517D01*
X136374141Y-94475725D01*
X136105929Y-95175883D01*
X134883703Y-95175883D01*
X134883746Y-95126759D01*
X134597426Y-94433809D01*
X134330993Y-94166911D01*
X136846517Y-94166911D01*
X138000000Y-95320395D01*
X139153483Y-94166911D01*
X139024275Y-93874141D01*
X138324117Y-93605929D01*
X137574616Y-93626072D01*
X136975725Y-93874141D01*
X136846517Y-94166911D01*
X134330993Y-94166911D01*
X134133740Y-93969314D01*
X134133740Y-92712275D01*
X134235317Y-92693162D01*
X134451441Y-92554090D01*
X134596431Y-92341890D01*
X134597012Y-92339016D01*
X135130590Y-92339016D01*
X135186271Y-92569611D01*
X135669078Y-92737622D01*
X136179428Y-92708083D01*
X136513729Y-92569611D01*
X136569410Y-92339016D01*
X135850000Y-91619605D01*
X135130590Y-92339016D01*
X134597012Y-92339016D01*
X134647440Y-92090000D01*
X134647440Y-91927615D01*
X134720389Y-92103729D01*
X134950984Y-92159410D01*
X135670395Y-91440000D01*
X136029605Y-91440000D01*
X136749016Y-92159410D01*
X136979611Y-92103729D01*
X137147622Y-91620922D01*
X137118083Y-91110572D01*
X136979611Y-90776271D01*
X136749016Y-90720590D01*
X136029605Y-91440000D01*
X135670395Y-91440000D01*
X134950984Y-90720590D01*
X134720389Y-90776271D01*
X134647440Y-90985902D01*
X134647440Y-90790000D01*
X134603162Y-90554683D01*
X134594347Y-90540984D01*
X135130590Y-90540984D01*
X135850000Y-91260395D01*
X136569410Y-90540984D01*
X136513729Y-90310389D01*
X136030922Y-90142378D01*
X135520572Y-90171917D01*
X135186271Y-90310389D01*
X135130590Y-90540984D01*
X134594347Y-90540984D01*
X134485000Y-90371054D01*
X134485000Y-82120132D01*
X139220089Y-77385043D01*
X139383110Y-77496431D01*
X139635000Y-77547440D01*
X140077308Y-77547440D01*
X141365000Y-78835132D01*
X141365000Y-80163516D01*
X141115154Y-80412927D01*
X140865794Y-81013453D01*
X140865226Y-81663694D01*
X141113538Y-82264655D01*
X141572927Y-82724846D01*
X142173453Y-82974206D01*
X142823694Y-82974774D01*
X143424655Y-82726462D01*
X143884846Y-82267073D01*
X144134206Y-81666547D01*
X144134774Y-81016306D01*
X143886462Y-80415345D01*
X143635000Y-80163444D01*
X143635000Y-78365000D01*
X143548603Y-77930654D01*
X143302566Y-77562434D01*
X143075132Y-77335000D01*
X145808272Y-77335000D01*
X146135849Y-77553880D01*
X146685000Y-77663113D01*
X147234151Y-77553880D01*
X147699698Y-77242811D01*
X147865000Y-76995419D01*
X147865000Y-80323516D01*
X147615154Y-80572927D01*
X147365794Y-81173453D01*
X147365226Y-81823694D01*
X147613538Y-82424655D01*
X148072927Y-82884846D01*
X148673453Y-83134206D01*
X148771909Y-83134292D01*
X153885000Y-88948097D01*
X153885000Y-90057193D01*
X153685232Y-90538287D01*
X153684769Y-91069383D01*
X153869334Y-91516067D01*
X153815168Y-94017233D01*
X153400658Y-94431021D01*
X153113128Y-95123469D01*
X153112474Y-95873241D01*
X153398794Y-96566191D01*
X153928501Y-97096822D01*
X154620949Y-97384352D01*
X155370721Y-97385006D01*
X156063671Y-97098686D01*
X156594302Y-96568979D01*
X156881832Y-95876531D01*
X156882486Y-95126759D01*
X156596166Y-94433809D01*
X156087709Y-93924465D01*
X156138597Y-91574683D01*
X156151098Y-91562204D01*
X156354768Y-91071713D01*
X156355231Y-90540617D01*
X156155000Y-90056020D01*
X156155000Y-88520000D01*
X156118757Y-88337796D01*
X156094250Y-88153651D01*
X156075789Y-88121779D01*
X156068603Y-88085654D01*
X155965395Y-87931192D01*
X155872282Y-87770440D01*
X150634216Y-81814533D01*
X150634774Y-81176306D01*
X150386462Y-80575345D01*
X150135000Y-80323444D01*
X150135000Y-77312768D01*
X150239698Y-77242811D01*
X150495000Y-76860725D01*
X150750302Y-77242811D01*
X151215849Y-77553880D01*
X151587717Y-77627849D01*
X153762434Y-79802566D01*
X154130654Y-80048603D01*
X154565000Y-80135000D01*
X157000000Y-80135000D01*
X157434346Y-80048603D01*
X157802566Y-79802566D01*
X158885000Y-78720132D01*
X158885000Y-89630331D01*
X158868559Y-89640910D01*
X158723569Y-89853110D01*
X158672560Y-90105000D01*
X158672560Y-91505000D01*
X158716838Y-91740317D01*
X158855910Y-91956441D01*
X158859734Y-91959054D01*
X158815120Y-94018538D01*
X158401918Y-94431021D01*
X158114388Y-95123469D01*
X158113734Y-95873241D01*
X158400054Y-96566191D01*
X158929761Y-97096822D01*
X159622209Y-97384352D01*
X160371981Y-97385006D01*
X161064931Y-97098686D01*
X161595562Y-96568979D01*
X161883092Y-95876531D01*
X161883094Y-95873241D01*
X163114994Y-95873241D01*
X163401314Y-96566191D01*
X163931021Y-97096822D01*
X164623469Y-97384352D01*
X165373241Y-97385006D01*
X166066191Y-97098686D01*
X166596822Y-96568979D01*
X166884352Y-95876531D01*
X166885006Y-95126759D01*
X166598686Y-94433809D01*
X166068979Y-93903178D01*
X165376531Y-93615648D01*
X164626759Y-93614994D01*
X163933809Y-93901314D01*
X163403178Y-94431021D01*
X163115648Y-95123469D01*
X163114994Y-95873241D01*
X161883094Y-95873241D01*
X161883746Y-95126759D01*
X161597426Y-94433809D01*
X161087718Y-93923212D01*
X161129464Y-91996101D01*
X161171441Y-91969090D01*
X161316431Y-91756890D01*
X161367440Y-91505000D01*
X161367440Y-90105000D01*
X161323162Y-89869683D01*
X161184090Y-89653559D01*
X161155000Y-89633683D01*
X161155000Y-77376484D01*
X161404846Y-77127073D01*
X161654206Y-76526547D01*
X161654774Y-75876306D01*
X161406462Y-75275345D01*
X160947073Y-74815154D01*
X160346547Y-74565794D01*
X159696306Y-74565226D01*
X159095345Y-74813538D01*
X158635154Y-75272927D01*
X158385794Y-75873453D01*
X158385675Y-76009193D01*
X156529868Y-77865000D01*
X155035132Y-77865000D01*
X154745603Y-77575471D01*
X154854151Y-77553880D01*
X155319698Y-77242811D01*
X155630767Y-76777264D01*
X155704736Y-76405396D01*
X158475132Y-73635000D01*
X162529868Y-73635000D01*
X163865000Y-74970132D01*
X163865000Y-84000000D01*
X163951397Y-84434346D01*
X164141871Y-84719410D01*
X164197434Y-84802566D01*
X167365000Y-87970133D01*
X167365000Y-96529868D01*
X162529868Y-101365000D01*
X121970132Y-101365000D01*
X120515000Y-99909868D01*
X120515000Y-98161049D01*
X120631317Y-98139162D01*
X120847441Y-98000090D01*
X120992431Y-97787890D01*
X121043440Y-97536000D01*
X121043440Y-95504000D01*
X120999162Y-95268683D01*
X120860090Y-95052559D01*
X120647890Y-94907569D01*
X120515000Y-94880658D01*
X120515000Y-91763694D01*
X122825226Y-91763694D01*
X123073538Y-92364655D01*
X123325000Y-92616556D01*
X123325000Y-96960000D01*
X123411397Y-97394346D01*
X123628598Y-97719410D01*
X123657434Y-97762566D01*
X126197433Y-100302566D01*
X126565654Y-100548603D01*
X127000000Y-100635000D01*
X139500000Y-100635000D01*
X139934346Y-100548603D01*
X140302566Y-100302566D01*
X141772566Y-98832566D01*
X141862859Y-98697433D01*
X142018603Y-98464346D01*
X142105000Y-98030000D01*
X142105000Y-97899016D01*
X148280590Y-97899016D01*
X148336271Y-98129611D01*
X148819078Y-98297622D01*
X149329428Y-98268083D01*
X149663729Y-98129611D01*
X149719410Y-97899016D01*
X149000000Y-97179605D01*
X148280590Y-97899016D01*
X142105000Y-97899016D01*
X142105000Y-96819078D01*
X147702378Y-96819078D01*
X147731917Y-97329428D01*
X147870389Y-97663729D01*
X148100984Y-97719410D01*
X148820395Y-97000000D01*
X149179605Y-97000000D01*
X149899016Y-97719410D01*
X150129611Y-97663729D01*
X150297622Y-97180922D01*
X150268083Y-96670572D01*
X150129611Y-96336271D01*
X149899016Y-96280590D01*
X149179605Y-97000000D01*
X148820395Y-97000000D01*
X148100984Y-96280590D01*
X147870389Y-96336271D01*
X147702378Y-96819078D01*
X142105000Y-96819078D01*
X142105000Y-96187675D01*
X143195173Y-92981282D01*
X143424655Y-92886462D01*
X143884846Y-92427073D01*
X144068952Y-91983694D01*
X147365226Y-91983694D01*
X147613538Y-92584655D01*
X147865000Y-92836556D01*
X147865000Y-93435025D01*
X147753569Y-93598110D01*
X147702560Y-93850000D01*
X147702560Y-95150000D01*
X147746838Y-95385317D01*
X147885910Y-95601441D01*
X148098110Y-95746431D01*
X148350000Y-95797440D01*
X148512385Y-95797440D01*
X148336271Y-95870389D01*
X148280590Y-96100984D01*
X149000000Y-96820395D01*
X149719410Y-96100984D01*
X149663729Y-95870389D01*
X149454098Y-95797440D01*
X149650000Y-95797440D01*
X149885317Y-95753162D01*
X150101441Y-95614090D01*
X150246431Y-95401890D01*
X150297440Y-95150000D01*
X150297440Y-93850000D01*
X150253162Y-93614683D01*
X150135000Y-93431054D01*
X150135000Y-92836484D01*
X150384846Y-92587073D01*
X150634206Y-91986547D01*
X150634774Y-91336306D01*
X150386462Y-90735345D01*
X149927073Y-90275154D01*
X149326547Y-90025794D01*
X148676306Y-90025226D01*
X148075345Y-90273538D01*
X147615154Y-90732927D01*
X147365794Y-91333453D01*
X147365226Y-91983694D01*
X144068952Y-91983694D01*
X144134206Y-91826547D01*
X144134774Y-91176306D01*
X143886462Y-90575345D01*
X143427073Y-90115154D01*
X142826547Y-89865794D01*
X142470615Y-89865483D01*
X137504148Y-84899016D01*
X137780590Y-84899016D01*
X137836271Y-85129611D01*
X138319078Y-85297622D01*
X138829428Y-85268083D01*
X139163729Y-85129611D01*
X139219410Y-84899016D01*
X138500000Y-84179605D01*
X137780590Y-84899016D01*
X137504148Y-84899016D01*
X137290315Y-84685183D01*
X137297440Y-84650000D01*
X137297440Y-84487615D01*
X137370389Y-84663729D01*
X137600984Y-84719410D01*
X138320395Y-84000000D01*
X138679605Y-84000000D01*
X139399016Y-84719410D01*
X139629611Y-84663729D01*
X139797622Y-84180922D01*
X139768083Y-83670572D01*
X139629611Y-83336271D01*
X139399016Y-83280590D01*
X138679605Y-84000000D01*
X138320395Y-84000000D01*
X137600984Y-83280590D01*
X137370389Y-83336271D01*
X137297440Y-83545902D01*
X137297440Y-83350000D01*
X137253162Y-83114683D01*
X137244347Y-83100984D01*
X137780590Y-83100984D01*
X138500000Y-83820395D01*
X139219410Y-83100984D01*
X139163729Y-82870389D01*
X138680922Y-82702378D01*
X138170572Y-82731917D01*
X137836271Y-82870389D01*
X137780590Y-83100984D01*
X137244347Y-83100984D01*
X137114090Y-82898559D01*
X136901890Y-82753569D01*
X136650000Y-82702560D01*
X135350000Y-82702560D01*
X135114683Y-82746838D01*
X134898559Y-82885910D01*
X134753569Y-83098110D01*
X134702560Y-83350000D01*
X134702560Y-84650000D01*
X134746838Y-84885317D01*
X134884850Y-85099794D01*
X134951397Y-85434346D01*
X135155629Y-85740000D01*
X135197434Y-85802566D01*
X140865534Y-91470666D01*
X140865226Y-91823694D01*
X141044015Y-92256398D01*
X139895413Y-95634640D01*
X139890066Y-95675100D01*
X139873928Y-95074616D01*
X139625859Y-94475725D01*
X139333089Y-94346517D01*
X138179605Y-95500000D01*
X139333089Y-96653483D01*
X139625859Y-96524275D01*
X139843970Y-95954903D01*
X139835000Y-96000000D01*
X139835000Y-97559868D01*
X139029868Y-98365000D01*
X127470133Y-98365000D01*
X125595000Y-96489868D01*
X125595000Y-95873241D01*
X126112474Y-95873241D01*
X126398794Y-96566191D01*
X126928501Y-97096822D01*
X127620949Y-97384352D01*
X128370721Y-97385006D01*
X129063671Y-97098686D01*
X129594302Y-96568979D01*
X129881832Y-95876531D01*
X129882486Y-95126759D01*
X129596166Y-94433809D01*
X129066459Y-93903178D01*
X128374011Y-93615648D01*
X127624239Y-93614994D01*
X126931289Y-93901314D01*
X126400658Y-94431021D01*
X126113128Y-95123469D01*
X126112474Y-95873241D01*
X125595000Y-95873241D01*
X125595000Y-92616484D01*
X125636556Y-92575000D01*
X127728516Y-92575000D01*
X127977927Y-92824846D01*
X128578453Y-93074206D01*
X129228694Y-93074774D01*
X129829655Y-92826462D01*
X130289846Y-92367073D01*
X130539206Y-91766547D01*
X130539774Y-91116306D01*
X130291462Y-90515345D01*
X129832073Y-90055154D01*
X129231547Y-89805794D01*
X128581306Y-89805226D01*
X127980345Y-90053538D01*
X127728444Y-90305000D01*
X125636484Y-90305000D01*
X125387073Y-90055154D01*
X124786547Y-89805794D01*
X124136306Y-89805226D01*
X123535345Y-90053538D01*
X123075154Y-90512927D01*
X122825794Y-91113453D01*
X122825226Y-91763694D01*
X120515000Y-91763694D01*
X120515000Y-88265000D01*
X120428603Y-87830654D01*
X120182566Y-87462434D01*
X118852972Y-86132840D01*
X119212566Y-85892566D01*
X122690132Y-82415000D01*
X123283516Y-82415000D01*
X123532927Y-82664846D01*
X124133453Y-82914206D01*
X124783694Y-82914774D01*
X125384655Y-82666462D01*
X125844846Y-82207073D01*
X126094206Y-81606547D01*
X126094774Y-80956306D01*
X125846462Y-80355345D01*
X125387073Y-79895154D01*
X124786547Y-79645794D01*
X124524567Y-79645565D01*
X125865711Y-78304421D01*
X125938459Y-78334628D01*
X126787815Y-78335370D01*
X126863829Y-78303962D01*
X127770000Y-79210133D01*
X127770000Y-80103516D01*
X127520154Y-80352927D01*
X127270794Y-80953453D01*
X127270226Y-81603694D01*
X127518538Y-82204655D01*
X127977927Y-82664846D01*
X128578453Y-82914206D01*
X129228694Y-82914774D01*
X129829655Y-82666462D01*
X130289846Y-82207073D01*
X130539206Y-81606547D01*
X130539774Y-80956306D01*
X130291462Y-80355345D01*
X130040000Y-80103444D01*
X130040000Y-78740000D01*
X129953603Y-78305654D01*
X129756735Y-78011020D01*
X129707566Y-77937433D01*
X129105133Y-77335000D01*
X131837193Y-77335000D01*
X132318287Y-77534768D01*
X132849383Y-77535231D01*
X133340229Y-77332418D01*
X133716098Y-76957204D01*
X133919768Y-76466713D01*
X133920231Y-75935617D01*
X133717418Y-75444771D01*
X133342204Y-75068902D01*
X132851713Y-74865232D01*
X132320617Y-74864769D01*
X131836020Y-75065000D01*
X128206100Y-75065000D01*
X128176020Y-74992200D01*
X127575959Y-74391091D01*
X126791541Y-74065372D01*
X125942185Y-74064630D01*
X125157200Y-74388980D01*
X124635000Y-74910270D01*
X124635000Y-71470132D01*
X125551276Y-70553856D01*
X125938459Y-70714628D01*
X126787815Y-70715370D01*
X127572800Y-70391020D01*
X128173909Y-69790959D01*
X128205450Y-69715000D01*
X131837193Y-69715000D01*
X132318287Y-69914768D01*
X132849383Y-69915231D01*
X133340229Y-69712418D01*
X133716098Y-69337204D01*
X133919768Y-68846713D01*
X133920231Y-68315617D01*
X133717418Y-67824771D01*
X133342204Y-67448902D01*
X132851713Y-67245232D01*
X132320617Y-67244769D01*
X131836020Y-67445000D01*
X128206100Y-67445000D01*
X128176020Y-67372200D01*
X127575959Y-66771091D01*
X127500000Y-66739550D01*
X127500000Y-66510132D01*
X128875667Y-65134466D01*
X129228694Y-65134774D01*
X129829655Y-64886462D01*
X130289846Y-64427073D01*
X130539206Y-63826547D01*
X130539774Y-63176306D01*
X130291462Y-62575345D01*
X129832073Y-62115154D01*
X129231547Y-61865794D01*
X128581306Y-61865226D01*
X127980345Y-62113538D01*
X127520154Y-62572927D01*
X127270794Y-63173453D01*
X127270483Y-63529384D01*
X125562434Y-65237434D01*
X125316397Y-65605654D01*
X125230000Y-66040000D01*
X125230000Y-66738900D01*
X125157200Y-66768980D01*
X124556091Y-67369041D01*
X124230372Y-68153459D01*
X124229925Y-68664943D01*
X122839857Y-70055011D01*
X122840284Y-69566205D01*
X122591894Y-68965057D01*
X122267241Y-68639836D01*
X122590278Y-68317363D01*
X122839716Y-67716648D01*
X122840284Y-67066205D01*
X122591894Y-66465057D01*
X122132363Y-66004722D01*
X121531648Y-65755284D01*
X120881205Y-65754716D01*
X120280057Y-66003106D01*
X120007248Y-66275439D01*
X119675654Y-66341397D01*
X119340030Y-66565654D01*
X119307434Y-66587434D01*
X117697434Y-68197434D01*
X117451397Y-68565654D01*
X117365000Y-69000000D01*
X117365000Y-71195980D01*
X117292206Y-71123186D01*
X117177926Y-71237466D01*
X117079264Y-70970613D01*
X116469539Y-70744092D01*
X115819540Y-70768144D01*
X115330736Y-70970613D01*
X115232073Y-71237468D01*
X116205000Y-72210395D01*
X116219143Y-72196253D01*
X116398748Y-72375858D01*
X116384605Y-72390000D01*
X116398748Y-72404143D01*
X116219143Y-72583748D01*
X116205000Y-72569605D01*
X115232073Y-73542532D01*
X115330736Y-73809387D01*
X115940461Y-74035908D01*
X116590460Y-74011856D01*
X117079264Y-73809387D01*
X117177926Y-73542534D01*
X117292206Y-73656814D01*
X117365000Y-73584020D01*
X117365000Y-78000000D01*
X117451397Y-78434346D01*
X117695282Y-78799345D01*
X117697434Y-78802566D01*
X119197434Y-80302566D01*
X119565654Y-80548603D01*
X120000000Y-80635000D01*
X121259868Y-80635000D01*
X117939868Y-83955000D01*
X117269975Y-83955000D01*
X117106890Y-83843569D01*
X116855000Y-83792560D01*
X116512692Y-83792560D01*
X114635000Y-81914868D01*
X114635000Y-72900652D01*
X114785613Y-73264264D01*
X115052468Y-73362927D01*
X116025395Y-72390000D01*
X115052468Y-71417073D01*
X114785613Y-71515736D01*
X114635000Y-71921140D01*
X114635000Y-67470132D01*
X117470133Y-64635000D01*
X123283516Y-64635000D01*
X123532927Y-64884846D01*
X124133453Y-65134206D01*
X124783694Y-65134774D01*
X125384655Y-64886462D01*
X125844846Y-64427073D01*
X126094206Y-63826547D01*
X126094774Y-63176306D01*
X125846462Y-62575345D01*
X125387073Y-62115154D01*
X124786547Y-61865794D01*
X124136306Y-61865226D01*
X123535345Y-62113538D01*
X123283444Y-62365000D01*
X117000000Y-62365000D01*
X116608266Y-62442921D01*
X116565654Y-62451397D01*
X116197433Y-62697434D01*
X112697434Y-66197434D01*
X112451397Y-66565654D01*
X112365000Y-67000000D01*
X109925453Y-67000000D01*
X110028835Y-53663694D01*
X122825226Y-53663694D01*
X123073538Y-54264655D01*
X123532927Y-54724846D01*
X124133453Y-54974206D01*
X124783694Y-54974774D01*
X125384655Y-54726462D01*
X125836905Y-54275000D01*
X127528865Y-54275000D01*
X127977927Y-54724846D01*
X128578453Y-54974206D01*
X129228694Y-54974774D01*
X129829655Y-54726462D01*
X130289846Y-54267073D01*
X130539206Y-53666547D01*
X130539774Y-53016306D01*
X130291462Y-52415345D01*
X129832073Y-51955154D01*
X129231547Y-51705794D01*
X128581306Y-51705226D01*
X127980345Y-51953538D01*
X127528095Y-52405000D01*
X125836135Y-52405000D01*
X125595000Y-52163444D01*
X125595000Y-48510132D01*
X126210790Y-47894342D01*
X126115648Y-48123469D01*
X126114994Y-48873241D01*
X126401314Y-49566191D01*
X126931021Y-50096822D01*
X127623469Y-50384352D01*
X128373241Y-50385006D01*
X129066191Y-50098686D01*
X129596822Y-49568979D01*
X129884352Y-48876531D01*
X129884354Y-48873241D01*
X131116254Y-48873241D01*
X131402574Y-49566191D01*
X131866260Y-50030686D01*
X131866260Y-52991260D01*
X131952657Y-53425606D01*
X131959308Y-53435560D01*
X131697434Y-53697434D01*
X131451397Y-54065654D01*
X131365000Y-54500000D01*
X131365000Y-62500000D01*
X131451397Y-62934346D01*
X131611560Y-63174046D01*
X131697434Y-63302566D01*
X132697434Y-64302567D01*
X133065655Y-64548604D01*
X133500000Y-64635000D01*
X134488655Y-64635000D01*
X140900895Y-64763245D01*
X140019202Y-67232560D01*
X139635000Y-67232560D01*
X139399683Y-67276838D01*
X139183559Y-67415910D01*
X139038569Y-67628110D01*
X138987560Y-67880000D01*
X138987560Y-69280000D01*
X139031838Y-69515317D01*
X139170910Y-69731441D01*
X139383110Y-69876431D01*
X139635000Y-69927440D01*
X140322308Y-69927440D01*
X142197434Y-71802566D01*
X142565654Y-72048603D01*
X143000000Y-72135000D01*
X148000000Y-72135000D01*
X148434346Y-72048603D01*
X148802566Y-71802566D01*
X150027566Y-70577566D01*
X150273604Y-70209345D01*
X150360000Y-69775000D01*
X150360000Y-69442767D01*
X150495000Y-69240725D01*
X150750302Y-69622811D01*
X151215849Y-69933880D01*
X151765000Y-70043113D01*
X152314151Y-69933880D01*
X152779698Y-69622811D01*
X153035000Y-69240725D01*
X153290302Y-69622811D01*
X153755849Y-69933880D01*
X154305000Y-70043113D01*
X154854151Y-69933880D01*
X155181728Y-69715000D01*
X158843516Y-69715000D01*
X159092927Y-69964846D01*
X159693453Y-70214206D01*
X160343694Y-70214774D01*
X160944655Y-69966462D01*
X161404846Y-69507073D01*
X161654206Y-68906547D01*
X161654774Y-68256306D01*
X161406462Y-67655345D01*
X161155000Y-67403444D01*
X161155000Y-62922815D01*
X167364630Y-62922815D01*
X167688980Y-63707800D01*
X168289041Y-64308909D01*
X169073459Y-64634628D01*
X169922815Y-64635370D01*
X170707800Y-64311020D01*
X171308909Y-63710959D01*
X171340450Y-63635000D01*
X174720000Y-63635000D01*
X174720000Y-67962573D01*
X174652440Y-68125276D01*
X174652440Y-67930000D01*
X174608162Y-67694683D01*
X174469090Y-67478559D01*
X174256890Y-67333569D01*
X174005000Y-67282560D01*
X172705000Y-67282560D01*
X172469683Y-67326838D01*
X172286054Y-67445000D01*
X171356484Y-67445000D01*
X171107073Y-67195154D01*
X170506547Y-66945794D01*
X169856306Y-66945226D01*
X169255345Y-67193538D01*
X168795154Y-67652927D01*
X168545794Y-68253453D01*
X168545226Y-68903694D01*
X168793538Y-69504655D01*
X169252927Y-69964846D01*
X169853453Y-70214206D01*
X170503694Y-70214774D01*
X171104655Y-69966462D01*
X171356556Y-69715000D01*
X172290025Y-69715000D01*
X172453110Y-69826431D01*
X172705000Y-69877440D01*
X174005000Y-69877440D01*
X174240317Y-69833162D01*
X174456441Y-69694090D01*
X174601431Y-69481890D01*
X174652440Y-69230000D01*
X174652440Y-69034540D01*
X174764995Y-69306943D01*
X175126155Y-69668735D01*
X175598276Y-69864777D01*
X176109481Y-69865223D01*
X176581943Y-69670005D01*
X176943735Y-69308845D01*
X177005541Y-69160000D01*
X181147796Y-69160000D01*
X181397637Y-69410278D01*
X181673856Y-69524974D01*
X181400057Y-69638106D01*
X180939722Y-70097637D01*
X180690284Y-70698352D01*
X180689716Y-71348795D01*
X180938106Y-71949943D01*
X181397637Y-72410278D01*
X181998352Y-72659716D01*
X182648795Y-72660284D01*
X183249943Y-72411894D01*
X183710278Y-71952363D01*
X183743453Y-71872468D01*
X186352073Y-71872468D01*
X187325000Y-72845395D01*
X188297927Y-71872468D01*
X188199264Y-71605613D01*
X187589539Y-71379092D01*
X186939540Y-71403144D01*
X186450736Y-71605613D01*
X186352073Y-71872468D01*
X183743453Y-71872468D01*
X183959716Y-71351648D01*
X183960284Y-70701205D01*
X183711894Y-70100057D01*
X183252363Y-69639722D01*
X182976144Y-69525026D01*
X183249943Y-69411894D01*
X183710278Y-68952363D01*
X183959716Y-68351648D01*
X183960284Y-67701205D01*
X183711894Y-67100057D01*
X183252363Y-66639722D01*
X182651648Y-66390284D01*
X182001205Y-66389716D01*
X181400057Y-66638106D01*
X181147722Y-66890000D01*
X176990000Y-66890000D01*
X176990000Y-63446414D01*
X177054363Y-63382163D01*
X185082443Y-63382163D01*
X185181042Y-63648965D01*
X185790582Y-63875401D01*
X186440377Y-63851341D01*
X186928958Y-63648965D01*
X187027557Y-63382163D01*
X186055000Y-62409605D01*
X185082443Y-63382163D01*
X177054363Y-63382163D01*
X177279846Y-63157073D01*
X177529206Y-62556547D01*
X177529722Y-61965582D01*
X184409599Y-61965582D01*
X184433659Y-62615377D01*
X184636035Y-63103958D01*
X184902837Y-63202557D01*
X185875395Y-62230000D01*
X186234605Y-62230000D01*
X187207163Y-63202557D01*
X187473965Y-63103958D01*
X187700401Y-62494418D01*
X187676341Y-61844623D01*
X187473965Y-61356042D01*
X187207163Y-61257443D01*
X186234605Y-62230000D01*
X185875395Y-62230000D01*
X184902837Y-61257443D01*
X184636035Y-61356042D01*
X184409599Y-61965582D01*
X177529722Y-61965582D01*
X177529774Y-61906306D01*
X177281462Y-61305345D01*
X177054351Y-61077837D01*
X185082443Y-61077837D01*
X186055000Y-62050395D01*
X187027557Y-61077837D01*
X186928958Y-60811035D01*
X186319418Y-60584599D01*
X185669623Y-60608659D01*
X185181042Y-60811035D01*
X185082443Y-61077837D01*
X177054351Y-61077837D01*
X177030000Y-61053444D01*
X177030000Y-54883239D01*
X177155492Y-54858277D01*
X177685759Y-54503964D01*
X178040072Y-53973697D01*
X178164490Y-53348205D01*
X178164490Y-52061795D01*
X178040072Y-51436303D01*
X177685759Y-50906036D01*
X177155492Y-50551723D01*
X176530000Y-50427305D01*
X175904508Y-50551723D01*
X175374241Y-50906036D01*
X175165290Y-51218753D01*
X175092434Y-51267434D01*
X174846397Y-51635655D01*
X174760000Y-52070000D01*
X174846397Y-52504345D01*
X174895510Y-52577848D01*
X174895510Y-52832151D01*
X174846397Y-52905654D01*
X174760000Y-53340000D01*
X174760000Y-57632598D01*
X174601746Y-57632598D01*
X174721099Y-57379246D01*
X174690153Y-57251441D01*
X174377042Y-56693644D01*
X173874305Y-56298129D01*
X173258480Y-56125110D01*
X172659040Y-56125110D01*
X172659040Y-57632600D01*
X172679040Y-57632600D01*
X172679040Y-57886600D01*
X172659040Y-57886600D01*
X172659040Y-59394090D01*
X173258480Y-59394090D01*
X173874305Y-59221071D01*
X174377042Y-58825556D01*
X174690153Y-58267759D01*
X174721099Y-58139954D01*
X174601746Y-57886602D01*
X174760000Y-57886602D01*
X174760000Y-61053516D01*
X174510154Y-61302927D01*
X174484379Y-61365000D01*
X171341100Y-61365000D01*
X171311020Y-61292200D01*
X170710959Y-60691091D01*
X169926541Y-60365372D01*
X169077185Y-60364630D01*
X168292200Y-60688980D01*
X167691091Y-61289041D01*
X167365372Y-62073459D01*
X167364630Y-62922815D01*
X161155000Y-62922815D01*
X161155000Y-58139954D01*
X170342981Y-58139954D01*
X170373927Y-58267759D01*
X170687038Y-58825556D01*
X171189775Y-59221071D01*
X171805600Y-59394090D01*
X172405040Y-59394090D01*
X172405040Y-57886600D01*
X170462335Y-57886600D01*
X170342981Y-58139954D01*
X161155000Y-58139954D01*
X161155000Y-57379246D01*
X170342981Y-57379246D01*
X170462335Y-57632600D01*
X172405040Y-57632600D01*
X172405040Y-56125110D01*
X171805600Y-56125110D01*
X171189775Y-56298129D01*
X170687038Y-56693644D01*
X170373927Y-57251441D01*
X170342981Y-57379246D01*
X161155000Y-57379246D01*
X161155000Y-53879669D01*
X161171441Y-53869090D01*
X161316431Y-53656890D01*
X161367440Y-53405000D01*
X161367440Y-52005000D01*
X161323162Y-51769683D01*
X161184090Y-51553559D01*
X161171983Y-51545287D01*
X161194868Y-49971491D01*
X161598082Y-49568979D01*
X161885612Y-48876531D01*
X161885614Y-48873241D01*
X163117514Y-48873241D01*
X163403834Y-49566191D01*
X163933541Y-50096822D01*
X164625989Y-50384352D01*
X165375761Y-50385006D01*
X166068711Y-50098686D01*
X166599342Y-49568979D01*
X166886872Y-48876531D01*
X166887526Y-48126759D01*
X166847858Y-48030754D01*
X170342981Y-48030754D01*
X170373927Y-48158559D01*
X170687038Y-48716356D01*
X171189775Y-49111871D01*
X171805600Y-49284890D01*
X172405040Y-49284890D01*
X172405040Y-47777400D01*
X172659040Y-47777400D01*
X172659040Y-49284890D01*
X173258480Y-49284890D01*
X173874305Y-49111871D01*
X174377042Y-48716356D01*
X174690153Y-48158559D01*
X174721099Y-48030754D01*
X174601745Y-47777400D01*
X172659040Y-47777400D01*
X172405040Y-47777400D01*
X170462335Y-47777400D01*
X170342981Y-48030754D01*
X166847858Y-48030754D01*
X166601206Y-47433809D01*
X166437729Y-47270046D01*
X170342981Y-47270046D01*
X170462335Y-47523400D01*
X172405040Y-47523400D01*
X172405040Y-46015910D01*
X172659040Y-46015910D01*
X172659040Y-47523400D01*
X174601745Y-47523400D01*
X174721099Y-47270046D01*
X174690153Y-47142241D01*
X174377042Y-46584444D01*
X173874305Y-46188929D01*
X173258480Y-46015910D01*
X172659040Y-46015910D01*
X172405040Y-46015910D01*
X171805600Y-46015910D01*
X171189775Y-46188929D01*
X170687038Y-46584444D01*
X170373927Y-47142241D01*
X170342981Y-47270046D01*
X166437729Y-47270046D01*
X166071499Y-46903178D01*
X165379051Y-46615648D01*
X164629279Y-46614994D01*
X163936329Y-46901314D01*
X163405698Y-47431021D01*
X163118168Y-48123469D01*
X163117514Y-48873241D01*
X161885614Y-48873241D01*
X161886266Y-48126759D01*
X161599946Y-47433809D01*
X161070239Y-46903178D01*
X160377791Y-46615648D01*
X159628019Y-46614994D01*
X158935069Y-46901314D01*
X158404438Y-47431021D01*
X158116908Y-48123469D01*
X158116254Y-48873241D01*
X158402574Y-49566191D01*
X158922942Y-50087466D01*
X158902121Y-51519313D01*
X158868559Y-51540910D01*
X158723569Y-51753110D01*
X158672560Y-52005000D01*
X158672560Y-53405000D01*
X158716838Y-53640317D01*
X158855910Y-53856441D01*
X158885000Y-53876317D01*
X158885000Y-67403516D01*
X158843444Y-67445000D01*
X155181728Y-67445000D01*
X154854151Y-67226120D01*
X154305000Y-67116887D01*
X153755849Y-67226120D01*
X153290302Y-67537189D01*
X153035000Y-67919275D01*
X152900000Y-67717233D01*
X152900000Y-66265000D01*
X152813603Y-65830654D01*
X152762863Y-65754716D01*
X152567566Y-65462433D01*
X150355132Y-63250000D01*
X155822566Y-57782566D01*
X156068603Y-57414346D01*
X156101007Y-57251441D01*
X156155000Y-56980000D01*
X156155000Y-53452807D01*
X156354768Y-52971713D01*
X156355231Y-52440617D01*
X156152418Y-51949771D01*
X156085911Y-51883148D01*
X156112539Y-50052418D01*
X156596822Y-49568979D01*
X156884352Y-48876531D01*
X156885006Y-48126759D01*
X156598686Y-47433809D01*
X156068979Y-46903178D01*
X155376531Y-46615648D01*
X154626759Y-46614994D01*
X153933809Y-46901314D01*
X153403178Y-47431021D01*
X153115648Y-48123469D01*
X153114994Y-48873241D01*
X153401314Y-49566191D01*
X153842937Y-50008584D01*
X153812038Y-52132906D01*
X153685232Y-52438287D01*
X153684769Y-52969383D01*
X153885000Y-53453980D01*
X153885000Y-56509868D01*
X148456449Y-61938419D01*
X148281547Y-61865794D01*
X147631306Y-61865226D01*
X147030345Y-62113538D01*
X146570154Y-62572927D01*
X146320794Y-63173453D01*
X146320226Y-63823694D01*
X146568538Y-64424655D01*
X147027927Y-64884846D01*
X147628453Y-65134206D01*
X148278694Y-65134774D01*
X148810078Y-64915211D01*
X150630000Y-66735133D01*
X150630000Y-67717233D01*
X150495000Y-67919275D01*
X150239698Y-67537189D01*
X149774151Y-67226120D01*
X149225000Y-67116887D01*
X148675849Y-67226120D01*
X148210302Y-67537189D01*
X147940014Y-67941703D01*
X147837389Y-67724866D01*
X147422423Y-67348959D01*
X147034039Y-67188096D01*
X146812000Y-67310085D01*
X146812000Y-68453000D01*
X146832000Y-68453000D01*
X146832000Y-68707000D01*
X146812000Y-68707000D01*
X146812000Y-68727000D01*
X146558000Y-68727000D01*
X146558000Y-68707000D01*
X145414371Y-68707000D01*
X145293086Y-68929041D01*
X145532611Y-69435134D01*
X145947577Y-69811041D01*
X146077854Y-69865000D01*
X143470132Y-69865000D01*
X142004935Y-68399803D01*
X142018604Y-68379345D01*
X142024194Y-68351244D01*
X142038905Y-68326663D01*
X142073077Y-68230959D01*
X145293086Y-68230959D01*
X145414371Y-68453000D01*
X146558000Y-68453000D01*
X146558000Y-67310085D01*
X146335961Y-67188096D01*
X145947577Y-67348959D01*
X145532611Y-67724866D01*
X145293086Y-68230959D01*
X142073077Y-68230959D01*
X143173005Y-65150442D01*
X143424655Y-65046462D01*
X143884846Y-64587073D01*
X144134206Y-63986547D01*
X144134774Y-63336306D01*
X143886462Y-62735345D01*
X143427073Y-62275154D01*
X142826547Y-62025794D01*
X142176306Y-62025226D01*
X141575345Y-62273538D01*
X141346776Y-62501709D01*
X134522695Y-62365227D01*
X134511326Y-62367253D01*
X134500000Y-62365000D01*
X133970133Y-62365000D01*
X133635000Y-62029868D01*
X133635000Y-54970132D01*
X133967693Y-54637440D01*
X134000000Y-54637440D01*
X134235317Y-54593162D01*
X134451441Y-54454090D01*
X134596431Y-54241890D01*
X134597012Y-54239016D01*
X135130590Y-54239016D01*
X135186271Y-54469611D01*
X135669078Y-54637622D01*
X136179428Y-54608083D01*
X136513729Y-54469611D01*
X136569410Y-54239016D01*
X135850000Y-53519605D01*
X135130590Y-54239016D01*
X134597012Y-54239016D01*
X134647440Y-53990000D01*
X134647440Y-53827615D01*
X134720389Y-54003729D01*
X134950984Y-54059410D01*
X135670395Y-53340000D01*
X136029605Y-53340000D01*
X136749016Y-54059410D01*
X136979611Y-54003729D01*
X137147622Y-53520922D01*
X137118083Y-53010572D01*
X136979611Y-52676271D01*
X136749016Y-52620590D01*
X136029605Y-53340000D01*
X135670395Y-53340000D01*
X134950984Y-52620590D01*
X134720389Y-52676271D01*
X134647440Y-52885902D01*
X134647440Y-52690000D01*
X134603162Y-52454683D01*
X134594347Y-52440984D01*
X135130590Y-52440984D01*
X135850000Y-53160395D01*
X136569410Y-52440984D01*
X136513729Y-52210389D01*
X136030922Y-52042378D01*
X135520572Y-52071917D01*
X135186271Y-52210389D01*
X135130590Y-52440984D01*
X134594347Y-52440984D01*
X134464090Y-52238559D01*
X134251890Y-52093569D01*
X134136260Y-52070153D01*
X134136260Y-50029997D01*
X134333511Y-49833089D01*
X136849037Y-49833089D01*
X136978245Y-50125859D01*
X137678403Y-50394071D01*
X138427904Y-50373928D01*
X139026795Y-50125859D01*
X139156003Y-49833089D01*
X138002520Y-48679605D01*
X136849037Y-49833089D01*
X134333511Y-49833089D01*
X134598082Y-49568979D01*
X134885612Y-48876531D01*
X134886223Y-48175883D01*
X136108449Y-48175883D01*
X136128592Y-48925384D01*
X136376661Y-49524275D01*
X136669431Y-49653483D01*
X137822915Y-48500000D01*
X138182125Y-48500000D01*
X139335609Y-49653483D01*
X139628379Y-49524275D01*
X139896591Y-48824117D01*
X139876448Y-48074616D01*
X139628379Y-47475725D01*
X139335609Y-47346517D01*
X138182125Y-48500000D01*
X137822915Y-48500000D01*
X136669431Y-47346517D01*
X136376661Y-47475725D01*
X136108449Y-48175883D01*
X134886223Y-48175883D01*
X134886266Y-48126759D01*
X134599946Y-47433809D01*
X134333513Y-47166911D01*
X136849037Y-47166911D01*
X138002520Y-48320395D01*
X139156003Y-47166911D01*
X139026795Y-46874141D01*
X138326637Y-46605929D01*
X137577136Y-46626072D01*
X136978245Y-46874141D01*
X136849037Y-47166911D01*
X134333513Y-47166911D01*
X134070239Y-46903178D01*
X133377791Y-46615648D01*
X132628019Y-46614994D01*
X131935069Y-46901314D01*
X131404438Y-47431021D01*
X131116908Y-48123469D01*
X131116254Y-48873241D01*
X129884354Y-48873241D01*
X129885006Y-48126759D01*
X129598686Y-47433809D01*
X129068979Y-46903178D01*
X128376531Y-46615648D01*
X127626759Y-46614994D01*
X127393939Y-46711193D01*
X128970132Y-45135000D01*
X141029868Y-45135000D01*
X141365000Y-45470133D01*
X141365000Y-52323516D01*
X141323444Y-52365000D01*
X139500000Y-52365000D01*
X139119849Y-52440617D01*
X139065654Y-52451397D01*
X138697433Y-52697434D01*
X135197434Y-56197434D01*
X134951397Y-56565654D01*
X134865000Y-57000000D01*
X134865000Y-58935025D01*
X134753569Y-59098110D01*
X134702560Y-59350000D01*
X134702560Y-60650000D01*
X134746838Y-60885317D01*
X134885910Y-61101441D01*
X135098110Y-61246431D01*
X135169599Y-61260908D01*
X135197434Y-61302566D01*
X135565654Y-61548603D01*
X136000000Y-61635000D01*
X136434346Y-61548603D01*
X136802566Y-61302566D01*
X136828424Y-61263867D01*
X136885317Y-61253162D01*
X137101441Y-61114090D01*
X137246431Y-60901890D01*
X137247012Y-60899016D01*
X137780590Y-60899016D01*
X137836271Y-61129611D01*
X138319078Y-61297622D01*
X138829428Y-61268083D01*
X139163729Y-61129611D01*
X139219410Y-60899016D01*
X138500000Y-60179605D01*
X137780590Y-60899016D01*
X137247012Y-60899016D01*
X137297440Y-60650000D01*
X137297440Y-60487615D01*
X137370389Y-60663729D01*
X137600984Y-60719410D01*
X138320395Y-60000000D01*
X138679605Y-60000000D01*
X139399016Y-60719410D01*
X139629611Y-60663729D01*
X139797622Y-60180922D01*
X139768083Y-59670572D01*
X139629611Y-59336271D01*
X139399016Y-59280590D01*
X138679605Y-60000000D01*
X138320395Y-60000000D01*
X137600984Y-59280590D01*
X137370389Y-59336271D01*
X137297440Y-59545902D01*
X137297440Y-59350000D01*
X137253162Y-59114683D01*
X137244347Y-59100984D01*
X137780590Y-59100984D01*
X138500000Y-59820395D01*
X139219410Y-59100984D01*
X139163729Y-58870389D01*
X138680922Y-58702378D01*
X138170572Y-58731917D01*
X137836271Y-58870389D01*
X137780590Y-59100984D01*
X137244347Y-59100984D01*
X137135000Y-58931054D01*
X137135000Y-57470132D01*
X139970133Y-54635000D01*
X141323516Y-54635000D01*
X141572927Y-54884846D01*
X142173453Y-55134206D01*
X142823694Y-55134774D01*
X143424655Y-54886462D01*
X143884846Y-54427073D01*
X144134206Y-53826547D01*
X144134348Y-53663694D01*
X146320226Y-53663694D01*
X146568538Y-54264655D01*
X147027927Y-54724846D01*
X147628453Y-54974206D01*
X148278694Y-54974774D01*
X148879655Y-54726462D01*
X149339846Y-54267073D01*
X149589206Y-53666547D01*
X149589774Y-53016306D01*
X149341462Y-52415345D01*
X149090000Y-52163444D01*
X149090000Y-50594975D01*
X149201431Y-50431890D01*
X149252440Y-50180000D01*
X149252440Y-48880000D01*
X149208162Y-48644683D01*
X149069090Y-48428559D01*
X148856890Y-48283569D01*
X148605000Y-48232560D01*
X148442615Y-48232560D01*
X148618729Y-48159611D01*
X148674410Y-47929016D01*
X147955000Y-47209605D01*
X147235590Y-47929016D01*
X147291271Y-48159611D01*
X147500902Y-48232560D01*
X147305000Y-48232560D01*
X147069683Y-48276838D01*
X146853559Y-48415910D01*
X146708569Y-48628110D01*
X146657560Y-48880000D01*
X146657560Y-50180000D01*
X146701838Y-50415317D01*
X146820000Y-50598946D01*
X146820000Y-52163516D01*
X146570154Y-52412927D01*
X146320794Y-53013453D01*
X146320226Y-53663694D01*
X144134348Y-53663694D01*
X144134774Y-53176306D01*
X143886462Y-52575345D01*
X143635000Y-52323444D01*
X143635000Y-46849078D01*
X146657378Y-46849078D01*
X146686917Y-47359428D01*
X146825389Y-47693729D01*
X147055984Y-47749410D01*
X147775395Y-47030000D01*
X148134605Y-47030000D01*
X148854016Y-47749410D01*
X149084611Y-47693729D01*
X149252622Y-47210922D01*
X149223083Y-46700572D01*
X149084611Y-46366271D01*
X148854016Y-46310590D01*
X148134605Y-47030000D01*
X147775395Y-47030000D01*
X147055984Y-46310590D01*
X146825389Y-46366271D01*
X146657378Y-46849078D01*
X143635000Y-46849078D01*
X143635000Y-46130984D01*
X147235590Y-46130984D01*
X147955000Y-46850395D01*
X148674410Y-46130984D01*
X148618729Y-45900389D01*
X148135922Y-45732378D01*
X147625572Y-45761917D01*
X147291271Y-45900389D01*
X147235590Y-46130984D01*
X143635000Y-46130984D01*
X143635000Y-45000000D01*
X143595728Y-44802566D01*
X143548604Y-44565655D01*
X143302567Y-44197434D01*
X142302566Y-43197434D01*
X141934346Y-42951397D01*
X141500000Y-42865000D01*
X128500000Y-42865000D01*
X128065654Y-42951397D01*
X127697434Y-43197434D01*
X123657434Y-47237434D01*
X123411397Y-47605654D01*
X123325000Y-48040000D01*
X123325000Y-52163516D01*
X123075154Y-52412927D01*
X122825794Y-53013453D01*
X122825226Y-53663694D01*
X110028835Y-53663694D01*
X110126019Y-41127000D01*
X194372012Y-41127000D01*
X193873981Y-105373000D01*
X193873981Y-105373000D01*
G37*
X193873981Y-105373000D02*
X109627988Y-105373000D01*
X109693647Y-96902946D01*
X115234017Y-96902946D01*
X115502812Y-97488379D01*
X115975182Y-97926385D01*
X116457056Y-98125975D01*
X116713000Y-98006836D01*
X116713000Y-96647000D01*
X115352633Y-96647000D01*
X115234017Y-96902946D01*
X109693647Y-96902946D01*
X109699584Y-96137054D01*
X115234017Y-96137054D01*
X115352633Y-96393000D01*
X116713000Y-96393000D01*
X116713000Y-95033164D01*
X116457056Y-94914025D01*
X115975182Y-95113615D01*
X115502812Y-95551621D01*
X115234017Y-96137054D01*
X109699584Y-96137054D01*
X109739491Y-90989016D01*
X115485590Y-90989016D01*
X115541271Y-91219611D01*
X116024078Y-91387622D01*
X116534428Y-91358083D01*
X116868729Y-91219611D01*
X116924410Y-90989016D01*
X116205000Y-90269605D01*
X115485590Y-90989016D01*
X109739491Y-90989016D01*
X109747863Y-89909078D01*
X114907378Y-89909078D01*
X114936917Y-90419428D01*
X115075389Y-90753729D01*
X115305984Y-90809410D01*
X116025395Y-90090000D01*
X116384605Y-90090000D01*
X117104016Y-90809410D01*
X117334611Y-90753729D01*
X117502622Y-90270922D01*
X117473083Y-89760572D01*
X117334611Y-89426271D01*
X117104016Y-89370590D01*
X116384605Y-90090000D01*
X116025395Y-90090000D01*
X115305984Y-89370590D01*
X115075389Y-89426271D01*
X114907378Y-89909078D01*
X109747863Y-89909078D01*
X109753429Y-89190984D01*
X115485590Y-89190984D01*
X116205000Y-89910395D01*
X116924410Y-89190984D01*
X116868729Y-88960389D01*
X116385922Y-88792378D01*
X115875572Y-88821917D01*
X115541271Y-88960389D01*
X115485590Y-89190984D01*
X109753429Y-89190984D01*
X109925453Y-67000000D01*
X112365000Y-67000000D01*
X112365000Y-82385000D01*
X112451397Y-82819346D01*
X112697434Y-83187566D01*
X114907560Y-85397692D01*
X114907560Y-85740000D01*
X114951838Y-85975317D01*
X115090910Y-86191441D01*
X115303110Y-86336431D01*
X115555000Y-86387440D01*
X115897308Y-86387440D01*
X118245000Y-88735132D01*
X118245000Y-94878951D01*
X118128683Y-94900838D01*
X117912559Y-95039910D01*
X117801160Y-95202948D01*
X117704818Y-95113615D01*
X117222944Y-94914025D01*
X116967000Y-95033164D01*
X116967000Y-96393000D01*
X116987000Y-96393000D01*
X116987000Y-96647000D01*
X116967000Y-96647000D01*
X116967000Y-98006836D01*
X117222944Y-98125975D01*
X117704818Y-97926385D01*
X117802398Y-97835903D01*
X117899910Y-97987441D01*
X118112110Y-98132431D01*
X118245000Y-98159342D01*
X118245000Y-100380000D01*
X118331397Y-100814346D01*
X118577434Y-101182566D01*
X120697434Y-103302566D01*
X121065654Y-103548603D01*
X121500000Y-103635000D01*
X163000000Y-103635000D01*
X163434346Y-103548603D01*
X163802566Y-103302566D01*
X169302566Y-97802566D01*
X169548604Y-97434345D01*
X169635000Y-97000000D01*
X169635000Y-96874954D01*
X170342981Y-96874954D01*
X170373927Y-97002759D01*
X170687038Y-97560556D01*
X171189775Y-97956071D01*
X171805600Y-98129090D01*
X172405040Y-98129090D01*
X172405040Y-96621600D01*
X172659040Y-96621600D01*
X172659040Y-98129090D01*
X173258480Y-98129090D01*
X173874305Y-97956071D01*
X174377042Y-97560556D01*
X174690153Y-97002759D01*
X174721099Y-96874954D01*
X174601745Y-96621600D01*
X172659040Y-96621600D01*
X172405040Y-96621600D01*
X170462335Y-96621600D01*
X170342981Y-96874954D01*
X169635000Y-96874954D01*
X169635000Y-96114246D01*
X170342981Y-96114246D01*
X170462335Y-96367600D01*
X172405040Y-96367600D01*
X172405040Y-94860110D01*
X172659040Y-94860110D01*
X172659040Y-96367600D01*
X174601745Y-96367600D01*
X174721099Y-96114246D01*
X174690153Y-95986441D01*
X174377042Y-95428644D01*
X173874305Y-95033129D01*
X173258480Y-94860110D01*
X172659040Y-94860110D01*
X172405040Y-94860110D01*
X171805600Y-94860110D01*
X171189775Y-95033129D01*
X170687038Y-95428644D01*
X170373927Y-95986441D01*
X170342981Y-96114246D01*
X169635000Y-96114246D01*
X169635000Y-87500000D01*
X169548603Y-87065654D01*
X169433613Y-86893559D01*
X169348217Y-86765754D01*
X170342981Y-86765754D01*
X170373927Y-86893559D01*
X170687038Y-87451356D01*
X171189775Y-87846871D01*
X171805600Y-88019890D01*
X172405040Y-88019890D01*
X172405040Y-86512400D01*
X170462335Y-86512400D01*
X170342981Y-86765754D01*
X169348217Y-86765754D01*
X169302566Y-86697433D01*
X168610179Y-86005046D01*
X170342981Y-86005046D01*
X170462335Y-86258400D01*
X172405040Y-86258400D01*
X172405040Y-84750910D01*
X171805600Y-84750910D01*
X171189775Y-84923929D01*
X170687038Y-85319444D01*
X170373927Y-85877241D01*
X170342981Y-86005046D01*
X168610179Y-86005046D01*
X166135000Y-83529868D01*
X166135000Y-82422815D01*
X167364630Y-82422815D01*
X167688980Y-83207800D01*
X168289041Y-83808909D01*
X169073459Y-84134628D01*
X169922815Y-84135370D01*
X170707800Y-83811020D01*
X171207279Y-83312411D01*
X172517434Y-84622566D01*
X172709514Y-84750910D01*
X172659040Y-84750910D01*
X172659040Y-86258400D01*
X172679040Y-86258400D01*
X172679040Y-86512400D01*
X172659040Y-86512400D01*
X172659040Y-88019890D01*
X173258480Y-88019890D01*
X173874305Y-87846871D01*
X174377042Y-87451356D01*
X174690153Y-86893559D01*
X174721099Y-86765754D01*
X174601746Y-86512402D01*
X174760000Y-86512402D01*
X174760000Y-90805000D01*
X174846397Y-91239346D01*
X174895510Y-91312849D01*
X174895510Y-92083205D01*
X175019928Y-92708697D01*
X175374241Y-93238964D01*
X175904508Y-93593277D01*
X176530000Y-93717695D01*
X177155492Y-93593277D01*
X177685759Y-93238964D01*
X178040072Y-92708697D01*
X178164490Y-92083205D01*
X178164490Y-90796795D01*
X178040072Y-90171303D01*
X177685759Y-89641036D01*
X177155492Y-89286723D01*
X177030000Y-89261761D01*
X177030000Y-84996484D01*
X177054363Y-84972163D01*
X185082443Y-84972163D01*
X185181042Y-85238965D01*
X185790582Y-85465401D01*
X186440377Y-85441341D01*
X186928958Y-85238965D01*
X187027557Y-84972163D01*
X186055000Y-83999605D01*
X185082443Y-84972163D01*
X177054363Y-84972163D01*
X177279846Y-84747073D01*
X177529206Y-84146547D01*
X177529722Y-83555582D01*
X184409599Y-83555582D01*
X184433659Y-84205377D01*
X184636035Y-84693958D01*
X184902837Y-84792557D01*
X185875395Y-83820000D01*
X186234605Y-83820000D01*
X187207163Y-84792557D01*
X187473965Y-84693958D01*
X187700401Y-84084418D01*
X187676341Y-83434623D01*
X187473965Y-82946042D01*
X187207163Y-82847443D01*
X186234605Y-83820000D01*
X185875395Y-83820000D01*
X184902837Y-82847443D01*
X184636035Y-82946042D01*
X184409599Y-83555582D01*
X177529722Y-83555582D01*
X177529774Y-83496306D01*
X177281462Y-82895345D01*
X177054351Y-82667837D01*
X185082443Y-82667837D01*
X186055000Y-83640395D01*
X187027557Y-82667837D01*
X186928958Y-82401035D01*
X186319418Y-82174599D01*
X185669623Y-82198659D01*
X185181042Y-82401035D01*
X185082443Y-82667837D01*
X177054351Y-82667837D01*
X177030000Y-82643444D01*
X177030000Y-77335000D01*
X177729868Y-77335000D01*
X179222434Y-78827566D01*
X179590654Y-79073603D01*
X180025000Y-79160000D01*
X181147796Y-79160000D01*
X181397637Y-79410278D01*
X181998352Y-79659716D01*
X182648795Y-79660284D01*
X183249943Y-79411894D01*
X183710278Y-78952363D01*
X183959716Y-78351648D01*
X183960284Y-77701205D01*
X183711894Y-77100057D01*
X183387241Y-76774836D01*
X183710278Y-76452363D01*
X183959716Y-75851648D01*
X183960284Y-75201205D01*
X183711894Y-74600057D01*
X183290107Y-74177532D01*
X186352073Y-74177532D01*
X186450736Y-74444387D01*
X187060461Y-74670908D01*
X187710460Y-74646856D01*
X188199264Y-74444387D01*
X188297927Y-74177532D01*
X187325000Y-73204605D01*
X186352073Y-74177532D01*
X183290107Y-74177532D01*
X183252363Y-74139722D01*
X182651648Y-73890284D01*
X182001205Y-73889716D01*
X181400057Y-74138106D01*
X180939722Y-74597637D01*
X180690284Y-75198352D01*
X180689716Y-75848795D01*
X180938106Y-76449943D01*
X181262759Y-76775164D01*
X181147722Y-76890000D01*
X180495132Y-76890000D01*
X179002566Y-75397434D01*
X178882731Y-75317363D01*
X178634346Y-75151397D01*
X178200000Y-75065000D01*
X176472427Y-75065000D01*
X176111724Y-74915223D01*
X175600519Y-74914777D01*
X175128057Y-75109995D01*
X174766265Y-75471155D01*
X174652440Y-75745276D01*
X174652440Y-75550000D01*
X174608162Y-75314683D01*
X174469090Y-75098559D01*
X174256890Y-74953569D01*
X174005000Y-74902560D01*
X172705000Y-74902560D01*
X172469683Y-74946838D01*
X172286054Y-75065000D01*
X171356484Y-75065000D01*
X171107073Y-74815154D01*
X170506547Y-74565794D01*
X169856306Y-74565226D01*
X169255345Y-74813538D01*
X168795154Y-75272927D01*
X168545794Y-75873453D01*
X168545226Y-76523694D01*
X168793538Y-77124655D01*
X169252927Y-77584846D01*
X169853453Y-77834206D01*
X170503694Y-77834774D01*
X171104655Y-77586462D01*
X171356556Y-77335000D01*
X172290025Y-77335000D01*
X172453110Y-77446431D01*
X172705000Y-77497440D01*
X174005000Y-77497440D01*
X174240317Y-77453162D01*
X174456441Y-77314090D01*
X174601431Y-77101890D01*
X174652440Y-76850000D01*
X174652440Y-76654540D01*
X174760000Y-76914854D01*
X174760000Y-82643516D01*
X174718444Y-82685000D01*
X173790132Y-82685000D01*
X172302566Y-81197434D01*
X172270946Y-81176306D01*
X171934346Y-80951397D01*
X171500000Y-80865000D01*
X171341100Y-80865000D01*
X171311020Y-80792200D01*
X170710959Y-80191091D01*
X169926541Y-79865372D01*
X169077185Y-79864630D01*
X168292200Y-80188980D01*
X167691091Y-80789041D01*
X167365372Y-81573459D01*
X167364630Y-82422815D01*
X166135000Y-82422815D01*
X166135000Y-74500000D01*
X166048603Y-74065654D01*
X165802566Y-73697434D01*
X164865593Y-72760461D01*
X185679092Y-72760461D01*
X185703144Y-73410460D01*
X185905613Y-73899264D01*
X186172468Y-73997927D01*
X187145395Y-73025000D01*
X187504605Y-73025000D01*
X188477532Y-73997927D01*
X188744387Y-73899264D01*
X188970908Y-73289539D01*
X188946856Y-72639540D01*
X188744387Y-72150736D01*
X188477532Y-72052073D01*
X187504605Y-73025000D01*
X187145395Y-73025000D01*
X186172468Y-72052073D01*
X185905613Y-72150736D01*
X185679092Y-72760461D01*
X164865593Y-72760461D01*
X163802566Y-71697434D01*
X163665146Y-71605613D01*
X163434346Y-71451397D01*
X163000000Y-71365000D01*
X158005000Y-71365000D01*
X157570654Y-71451397D01*
X157339854Y-71605613D01*
X157202434Y-71697434D01*
X154127717Y-74772151D01*
X153755849Y-74846120D01*
X153290302Y-75157189D01*
X153035000Y-75539275D01*
X152779698Y-75157189D01*
X152314151Y-74846120D01*
X151765000Y-74736887D01*
X151215849Y-74846120D01*
X150750302Y-75157189D01*
X150495000Y-75539275D01*
X150239698Y-75157189D01*
X149774151Y-74846120D01*
X149225000Y-74736887D01*
X148675849Y-74846120D01*
X148210302Y-75157189D01*
X147955000Y-75539275D01*
X147699698Y-75157189D01*
X147234151Y-74846120D01*
X146685000Y-74736887D01*
X146135849Y-74846120D01*
X145808272Y-75065000D01*
X141509669Y-75065000D01*
X141499090Y-75048559D01*
X141286890Y-74903569D01*
X141035000Y-74852560D01*
X139635000Y-74852560D01*
X139399683Y-74896838D01*
X139183559Y-75035910D01*
X139163683Y-75065000D01*
X138800000Y-75065000D01*
X138365654Y-75151397D01*
X138117269Y-75317363D01*
X137997434Y-75397434D01*
X132547434Y-80847434D01*
X132301397Y-81215654D01*
X132215000Y-81650000D01*
X132215000Y-90375025D01*
X132103569Y-90538110D01*
X132052560Y-90790000D01*
X132052560Y-91203627D01*
X131950137Y-91356914D01*
X131863740Y-91791260D01*
X131863740Y-93970003D01*
X131401918Y-94431021D01*
X131114388Y-95123469D01*
X131113734Y-95873241D01*
X131400054Y-96566191D01*
X131929761Y-97096822D01*
X132622209Y-97384352D01*
X133371981Y-97385006D01*
X134064931Y-97098686D01*
X134330991Y-96833089D01*
X136846517Y-96833089D01*
X136975725Y-97125859D01*
X137675883Y-97394071D01*
X138425384Y-97373928D01*
X139024275Y-97125859D01*
X139153483Y-96833089D01*
X138000000Y-95679605D01*
X136846517Y-96833089D01*
X134330991Y-96833089D01*
X134595562Y-96568979D01*
X134883092Y-95876531D01*
X134883703Y-95175883D01*
X136105929Y-95175883D01*
X136126072Y-95925384D01*
X136374141Y-96524275D01*
X136666911Y-96653483D01*
X137820395Y-95500000D01*
X136666911Y-94346517D01*
X136374141Y-94475725D01*
X136105929Y-95175883D01*
X134883703Y-95175883D01*
X134883746Y-95126759D01*
X134597426Y-94433809D01*
X134330993Y-94166911D01*
X136846517Y-94166911D01*
X138000000Y-95320395D01*
X139153483Y-94166911D01*
X139024275Y-93874141D01*
X138324117Y-93605929D01*
X137574616Y-93626072D01*
X136975725Y-93874141D01*
X136846517Y-94166911D01*
X134330993Y-94166911D01*
X134133740Y-93969314D01*
X134133740Y-92712275D01*
X134235317Y-92693162D01*
X134451441Y-92554090D01*
X134596431Y-92341890D01*
X134597012Y-92339016D01*
X135130590Y-92339016D01*
X135186271Y-92569611D01*
X135669078Y-92737622D01*
X136179428Y-92708083D01*
X136513729Y-92569611D01*
X136569410Y-92339016D01*
X135850000Y-91619605D01*
X135130590Y-92339016D01*
X134597012Y-92339016D01*
X134647440Y-92090000D01*
X134647440Y-91927615D01*
X134720389Y-92103729D01*
X134950984Y-92159410D01*
X135670395Y-91440000D01*
X136029605Y-91440000D01*
X136749016Y-92159410D01*
X136979611Y-92103729D01*
X137147622Y-91620922D01*
X137118083Y-91110572D01*
X136979611Y-90776271D01*
X136749016Y-90720590D01*
X136029605Y-91440000D01*
X135670395Y-91440000D01*
X134950984Y-90720590D01*
X134720389Y-90776271D01*
X134647440Y-90985902D01*
X134647440Y-90790000D01*
X134603162Y-90554683D01*
X134594347Y-90540984D01*
X135130590Y-90540984D01*
X135850000Y-91260395D01*
X136569410Y-90540984D01*
X136513729Y-90310389D01*
X136030922Y-90142378D01*
X135520572Y-90171917D01*
X135186271Y-90310389D01*
X135130590Y-90540984D01*
X134594347Y-90540984D01*
X134485000Y-90371054D01*
X134485000Y-82120132D01*
X139220089Y-77385043D01*
X139383110Y-77496431D01*
X139635000Y-77547440D01*
X140077308Y-77547440D01*
X141365000Y-78835132D01*
X141365000Y-80163516D01*
X141115154Y-80412927D01*
X140865794Y-81013453D01*
X140865226Y-81663694D01*
X141113538Y-82264655D01*
X141572927Y-82724846D01*
X142173453Y-82974206D01*
X142823694Y-82974774D01*
X143424655Y-82726462D01*
X143884846Y-82267073D01*
X144134206Y-81666547D01*
X144134774Y-81016306D01*
X143886462Y-80415345D01*
X143635000Y-80163444D01*
X143635000Y-78365000D01*
X143548603Y-77930654D01*
X143302566Y-77562434D01*
X143075132Y-77335000D01*
X145808272Y-77335000D01*
X146135849Y-77553880D01*
X146685000Y-77663113D01*
X147234151Y-77553880D01*
X147699698Y-77242811D01*
X147865000Y-76995419D01*
X147865000Y-80323516D01*
X147615154Y-80572927D01*
X147365794Y-81173453D01*
X147365226Y-81823694D01*
X147613538Y-82424655D01*
X148072927Y-82884846D01*
X148673453Y-83134206D01*
X148771909Y-83134292D01*
X153885000Y-88948097D01*
X153885000Y-90057193D01*
X153685232Y-90538287D01*
X153684769Y-91069383D01*
X153869334Y-91516067D01*
X153815168Y-94017233D01*
X153400658Y-94431021D01*
X153113128Y-95123469D01*
X153112474Y-95873241D01*
X153398794Y-96566191D01*
X153928501Y-97096822D01*
X154620949Y-97384352D01*
X155370721Y-97385006D01*
X156063671Y-97098686D01*
X156594302Y-96568979D01*
X156881832Y-95876531D01*
X156882486Y-95126759D01*
X156596166Y-94433809D01*
X156087709Y-93924465D01*
X156138597Y-91574683D01*
X156151098Y-91562204D01*
X156354768Y-91071713D01*
X156355231Y-90540617D01*
X156155000Y-90056020D01*
X156155000Y-88520000D01*
X156118757Y-88337796D01*
X156094250Y-88153651D01*
X156075789Y-88121779D01*
X156068603Y-88085654D01*
X155965395Y-87931192D01*
X155872282Y-87770440D01*
X150634216Y-81814533D01*
X150634774Y-81176306D01*
X150386462Y-80575345D01*
X150135000Y-80323444D01*
X150135000Y-77312768D01*
X150239698Y-77242811D01*
X150495000Y-76860725D01*
X150750302Y-77242811D01*
X151215849Y-77553880D01*
X151587717Y-77627849D01*
X153762434Y-79802566D01*
X154130654Y-80048603D01*
X154565000Y-80135000D01*
X157000000Y-80135000D01*
X157434346Y-80048603D01*
X157802566Y-79802566D01*
X158885000Y-78720132D01*
X158885000Y-89630331D01*
X158868559Y-89640910D01*
X158723569Y-89853110D01*
X158672560Y-90105000D01*
X158672560Y-91505000D01*
X158716838Y-91740317D01*
X158855910Y-91956441D01*
X158859734Y-91959054D01*
X158815120Y-94018538D01*
X158401918Y-94431021D01*
X158114388Y-95123469D01*
X158113734Y-95873241D01*
X158400054Y-96566191D01*
X158929761Y-97096822D01*
X159622209Y-97384352D01*
X160371981Y-97385006D01*
X161064931Y-97098686D01*
X161595562Y-96568979D01*
X161883092Y-95876531D01*
X161883094Y-95873241D01*
X163114994Y-95873241D01*
X163401314Y-96566191D01*
X163931021Y-97096822D01*
X164623469Y-97384352D01*
X165373241Y-97385006D01*
X166066191Y-97098686D01*
X166596822Y-96568979D01*
X166884352Y-95876531D01*
X166885006Y-95126759D01*
X166598686Y-94433809D01*
X166068979Y-93903178D01*
X165376531Y-93615648D01*
X164626759Y-93614994D01*
X163933809Y-93901314D01*
X163403178Y-94431021D01*
X163115648Y-95123469D01*
X163114994Y-95873241D01*
X161883094Y-95873241D01*
X161883746Y-95126759D01*
X161597426Y-94433809D01*
X161087718Y-93923212D01*
X161129464Y-91996101D01*
X161171441Y-91969090D01*
X161316431Y-91756890D01*
X161367440Y-91505000D01*
X161367440Y-90105000D01*
X161323162Y-89869683D01*
X161184090Y-89653559D01*
X161155000Y-89633683D01*
X161155000Y-77376484D01*
X161404846Y-77127073D01*
X161654206Y-76526547D01*
X161654774Y-75876306D01*
X161406462Y-75275345D01*
X160947073Y-74815154D01*
X160346547Y-74565794D01*
X159696306Y-74565226D01*
X159095345Y-74813538D01*
X158635154Y-75272927D01*
X158385794Y-75873453D01*
X158385675Y-76009193D01*
X156529868Y-77865000D01*
X155035132Y-77865000D01*
X154745603Y-77575471D01*
X154854151Y-77553880D01*
X155319698Y-77242811D01*
X155630767Y-76777264D01*
X155704736Y-76405396D01*
X158475132Y-73635000D01*
X162529868Y-73635000D01*
X163865000Y-74970132D01*
X163865000Y-84000000D01*
X163951397Y-84434346D01*
X164141871Y-84719410D01*
X164197434Y-84802566D01*
X167365000Y-87970133D01*
X167365000Y-96529868D01*
X162529868Y-101365000D01*
X121970132Y-101365000D01*
X120515000Y-99909868D01*
X120515000Y-98161049D01*
X120631317Y-98139162D01*
X120847441Y-98000090D01*
X120992431Y-97787890D01*
X121043440Y-97536000D01*
X121043440Y-95504000D01*
X120999162Y-95268683D01*
X120860090Y-95052559D01*
X120647890Y-94907569D01*
X120515000Y-94880658D01*
X120515000Y-91763694D01*
X122825226Y-91763694D01*
X123073538Y-92364655D01*
X123325000Y-92616556D01*
X123325000Y-96960000D01*
X123411397Y-97394346D01*
X123628598Y-97719410D01*
X123657434Y-97762566D01*
X126197433Y-100302566D01*
X126565654Y-100548603D01*
X127000000Y-100635000D01*
X139500000Y-100635000D01*
X139934346Y-100548603D01*
X140302566Y-100302566D01*
X141772566Y-98832566D01*
X141862859Y-98697433D01*
X142018603Y-98464346D01*
X142105000Y-98030000D01*
X142105000Y-97899016D01*
X148280590Y-97899016D01*
X148336271Y-98129611D01*
X148819078Y-98297622D01*
X149329428Y-98268083D01*
X149663729Y-98129611D01*
X149719410Y-97899016D01*
X149000000Y-97179605D01*
X148280590Y-97899016D01*
X142105000Y-97899016D01*
X142105000Y-96819078D01*
X147702378Y-96819078D01*
X147731917Y-97329428D01*
X147870389Y-97663729D01*
X148100984Y-97719410D01*
X148820395Y-97000000D01*
X149179605Y-97000000D01*
X149899016Y-97719410D01*
X150129611Y-97663729D01*
X150297622Y-97180922D01*
X150268083Y-96670572D01*
X150129611Y-96336271D01*
X149899016Y-96280590D01*
X149179605Y-97000000D01*
X148820395Y-97000000D01*
X148100984Y-96280590D01*
X147870389Y-96336271D01*
X147702378Y-96819078D01*
X142105000Y-96819078D01*
X142105000Y-96187675D01*
X143195173Y-92981282D01*
X143424655Y-92886462D01*
X143884846Y-92427073D01*
X144068952Y-91983694D01*
X147365226Y-91983694D01*
X147613538Y-92584655D01*
X147865000Y-92836556D01*
X147865000Y-93435025D01*
X147753569Y-93598110D01*
X147702560Y-93850000D01*
X147702560Y-95150000D01*
X147746838Y-95385317D01*
X147885910Y-95601441D01*
X148098110Y-95746431D01*
X148350000Y-95797440D01*
X148512385Y-95797440D01*
X148336271Y-95870389D01*
X148280590Y-96100984D01*
X149000000Y-96820395D01*
X149719410Y-96100984D01*
X149663729Y-95870389D01*
X149454098Y-95797440D01*
X149650000Y-95797440D01*
X149885317Y-95753162D01*
X150101441Y-95614090D01*
X150246431Y-95401890D01*
X150297440Y-95150000D01*
X150297440Y-93850000D01*
X150253162Y-93614683D01*
X150135000Y-93431054D01*
X150135000Y-92836484D01*
X150384846Y-92587073D01*
X150634206Y-91986547D01*
X150634774Y-91336306D01*
X150386462Y-90735345D01*
X149927073Y-90275154D01*
X149326547Y-90025794D01*
X148676306Y-90025226D01*
X148075345Y-90273538D01*
X147615154Y-90732927D01*
X147365794Y-91333453D01*
X147365226Y-91983694D01*
X144068952Y-91983694D01*
X144134206Y-91826547D01*
X144134774Y-91176306D01*
X143886462Y-90575345D01*
X143427073Y-90115154D01*
X142826547Y-89865794D01*
X142470615Y-89865483D01*
X137504148Y-84899016D01*
X137780590Y-84899016D01*
X137836271Y-85129611D01*
X138319078Y-85297622D01*
X138829428Y-85268083D01*
X139163729Y-85129611D01*
X139219410Y-84899016D01*
X138500000Y-84179605D01*
X137780590Y-84899016D01*
X137504148Y-84899016D01*
X137290315Y-84685183D01*
X137297440Y-84650000D01*
X137297440Y-84487615D01*
X137370389Y-84663729D01*
X137600984Y-84719410D01*
X138320395Y-84000000D01*
X138679605Y-84000000D01*
X139399016Y-84719410D01*
X139629611Y-84663729D01*
X139797622Y-84180922D01*
X139768083Y-83670572D01*
X139629611Y-83336271D01*
X139399016Y-83280590D01*
X138679605Y-84000000D01*
X138320395Y-84000000D01*
X137600984Y-83280590D01*
X137370389Y-83336271D01*
X137297440Y-83545902D01*
X137297440Y-83350000D01*
X137253162Y-83114683D01*
X137244347Y-83100984D01*
X137780590Y-83100984D01*
X138500000Y-83820395D01*
X139219410Y-83100984D01*
X139163729Y-82870389D01*
X138680922Y-82702378D01*
X138170572Y-82731917D01*
X137836271Y-82870389D01*
X137780590Y-83100984D01*
X137244347Y-83100984D01*
X137114090Y-82898559D01*
X136901890Y-82753569D01*
X136650000Y-82702560D01*
X135350000Y-82702560D01*
X135114683Y-82746838D01*
X134898559Y-82885910D01*
X134753569Y-83098110D01*
X134702560Y-83350000D01*
X134702560Y-84650000D01*
X134746838Y-84885317D01*
X134884850Y-85099794D01*
X134951397Y-85434346D01*
X135155629Y-85740000D01*
X135197434Y-85802566D01*
X140865534Y-91470666D01*
X140865226Y-91823694D01*
X141044015Y-92256398D01*
X139895413Y-95634640D01*
X139890066Y-95675100D01*
X139873928Y-95074616D01*
X139625859Y-94475725D01*
X139333089Y-94346517D01*
X138179605Y-95500000D01*
X139333089Y-96653483D01*
X139625859Y-96524275D01*
X139843970Y-95954903D01*
X139835000Y-96000000D01*
X139835000Y-97559868D01*
X139029868Y-98365000D01*
X127470133Y-98365000D01*
X125595000Y-96489868D01*
X125595000Y-95873241D01*
X126112474Y-95873241D01*
X126398794Y-96566191D01*
X126928501Y-97096822D01*
X127620949Y-97384352D01*
X128370721Y-97385006D01*
X129063671Y-97098686D01*
X129594302Y-96568979D01*
X129881832Y-95876531D01*
X129882486Y-95126759D01*
X129596166Y-94433809D01*
X129066459Y-93903178D01*
X128374011Y-93615648D01*
X127624239Y-93614994D01*
X126931289Y-93901314D01*
X126400658Y-94431021D01*
X126113128Y-95123469D01*
X126112474Y-95873241D01*
X125595000Y-95873241D01*
X125595000Y-92616484D01*
X125636556Y-92575000D01*
X127728516Y-92575000D01*
X127977927Y-92824846D01*
X128578453Y-93074206D01*
X129228694Y-93074774D01*
X129829655Y-92826462D01*
X130289846Y-92367073D01*
X130539206Y-91766547D01*
X130539774Y-91116306D01*
X130291462Y-90515345D01*
X129832073Y-90055154D01*
X129231547Y-89805794D01*
X128581306Y-89805226D01*
X127980345Y-90053538D01*
X127728444Y-90305000D01*
X125636484Y-90305000D01*
X125387073Y-90055154D01*
X124786547Y-89805794D01*
X124136306Y-89805226D01*
X123535345Y-90053538D01*
X123075154Y-90512927D01*
X122825794Y-91113453D01*
X122825226Y-91763694D01*
X120515000Y-91763694D01*
X120515000Y-88265000D01*
X120428603Y-87830654D01*
X120182566Y-87462434D01*
X118852972Y-86132840D01*
X119212566Y-85892566D01*
X122690132Y-82415000D01*
X123283516Y-82415000D01*
X123532927Y-82664846D01*
X124133453Y-82914206D01*
X124783694Y-82914774D01*
X125384655Y-82666462D01*
X125844846Y-82207073D01*
X126094206Y-81606547D01*
X126094774Y-80956306D01*
X125846462Y-80355345D01*
X125387073Y-79895154D01*
X124786547Y-79645794D01*
X124524567Y-79645565D01*
X125865711Y-78304421D01*
X125938459Y-78334628D01*
X126787815Y-78335370D01*
X126863829Y-78303962D01*
X127770000Y-79210133D01*
X127770000Y-80103516D01*
X127520154Y-80352927D01*
X127270794Y-80953453D01*
X127270226Y-81603694D01*
X127518538Y-82204655D01*
X127977927Y-82664846D01*
X128578453Y-82914206D01*
X129228694Y-82914774D01*
X129829655Y-82666462D01*
X130289846Y-82207073D01*
X130539206Y-81606547D01*
X130539774Y-80956306D01*
X130291462Y-80355345D01*
X130040000Y-80103444D01*
X130040000Y-78740000D01*
X129953603Y-78305654D01*
X129756735Y-78011020D01*
X129707566Y-77937433D01*
X129105133Y-77335000D01*
X131837193Y-77335000D01*
X132318287Y-77534768D01*
X132849383Y-77535231D01*
X133340229Y-77332418D01*
X133716098Y-76957204D01*
X133919768Y-76466713D01*
X133920231Y-75935617D01*
X133717418Y-75444771D01*
X133342204Y-75068902D01*
X132851713Y-74865232D01*
X132320617Y-74864769D01*
X131836020Y-75065000D01*
X128206100Y-75065000D01*
X128176020Y-74992200D01*
X127575959Y-74391091D01*
X126791541Y-74065372D01*
X125942185Y-74064630D01*
X125157200Y-74388980D01*
X124635000Y-74910270D01*
X124635000Y-71470132D01*
X125551276Y-70553856D01*
X125938459Y-70714628D01*
X126787815Y-70715370D01*
X127572800Y-70391020D01*
X128173909Y-69790959D01*
X128205450Y-69715000D01*
X131837193Y-69715000D01*
X132318287Y-69914768D01*
X132849383Y-69915231D01*
X133340229Y-69712418D01*
X133716098Y-69337204D01*
X133919768Y-68846713D01*
X133920231Y-68315617D01*
X133717418Y-67824771D01*
X133342204Y-67448902D01*
X132851713Y-67245232D01*
X132320617Y-67244769D01*
X131836020Y-67445000D01*
X128206100Y-67445000D01*
X128176020Y-67372200D01*
X127575959Y-66771091D01*
X127500000Y-66739550D01*
X127500000Y-66510132D01*
X128875667Y-65134466D01*
X129228694Y-65134774D01*
X129829655Y-64886462D01*
X130289846Y-64427073D01*
X130539206Y-63826547D01*
X130539774Y-63176306D01*
X130291462Y-62575345D01*
X129832073Y-62115154D01*
X129231547Y-61865794D01*
X128581306Y-61865226D01*
X127980345Y-62113538D01*
X127520154Y-62572927D01*
X127270794Y-63173453D01*
X127270483Y-63529384D01*
X125562434Y-65237434D01*
X125316397Y-65605654D01*
X125230000Y-66040000D01*
X125230000Y-66738900D01*
X125157200Y-66768980D01*
X124556091Y-67369041D01*
X124230372Y-68153459D01*
X124229925Y-68664943D01*
X122839857Y-70055011D01*
X122840284Y-69566205D01*
X122591894Y-68965057D01*
X122267241Y-68639836D01*
X122590278Y-68317363D01*
X122839716Y-67716648D01*
X122840284Y-67066205D01*
X122591894Y-66465057D01*
X122132363Y-66004722D01*
X121531648Y-65755284D01*
X120881205Y-65754716D01*
X120280057Y-66003106D01*
X120007248Y-66275439D01*
X119675654Y-66341397D01*
X119340030Y-66565654D01*
X119307434Y-66587434D01*
X117697434Y-68197434D01*
X117451397Y-68565654D01*
X117365000Y-69000000D01*
X117365000Y-71195980D01*
X117292206Y-71123186D01*
X117177926Y-71237466D01*
X117079264Y-70970613D01*
X116469539Y-70744092D01*
X115819540Y-70768144D01*
X115330736Y-70970613D01*
X115232073Y-71237468D01*
X116205000Y-72210395D01*
X116219143Y-72196253D01*
X116398748Y-72375858D01*
X116384605Y-72390000D01*
X116398748Y-72404143D01*
X116219143Y-72583748D01*
X116205000Y-72569605D01*
X115232073Y-73542532D01*
X115330736Y-73809387D01*
X115940461Y-74035908D01*
X116590460Y-74011856D01*
X117079264Y-73809387D01*
X117177926Y-73542534D01*
X117292206Y-73656814D01*
X117365000Y-73584020D01*
X117365000Y-78000000D01*
X117451397Y-78434346D01*
X117695282Y-78799345D01*
X117697434Y-78802566D01*
X119197434Y-80302566D01*
X119565654Y-80548603D01*
X120000000Y-80635000D01*
X121259868Y-80635000D01*
X117939868Y-83955000D01*
X117269975Y-83955000D01*
X117106890Y-83843569D01*
X116855000Y-83792560D01*
X116512692Y-83792560D01*
X114635000Y-81914868D01*
X114635000Y-72900652D01*
X114785613Y-73264264D01*
X115052468Y-73362927D01*
X116025395Y-72390000D01*
X115052468Y-71417073D01*
X114785613Y-71515736D01*
X114635000Y-71921140D01*
X114635000Y-67470132D01*
X117470133Y-64635000D01*
X123283516Y-64635000D01*
X123532927Y-64884846D01*
X124133453Y-65134206D01*
X124783694Y-65134774D01*
X125384655Y-64886462D01*
X125844846Y-64427073D01*
X126094206Y-63826547D01*
X126094774Y-63176306D01*
X125846462Y-62575345D01*
X125387073Y-62115154D01*
X124786547Y-61865794D01*
X124136306Y-61865226D01*
X123535345Y-62113538D01*
X123283444Y-62365000D01*
X117000000Y-62365000D01*
X116608266Y-62442921D01*
X116565654Y-62451397D01*
X116197433Y-62697434D01*
X112697434Y-66197434D01*
X112451397Y-66565654D01*
X112365000Y-67000000D01*
X109925453Y-67000000D01*
X110028835Y-53663694D01*
X122825226Y-53663694D01*
X123073538Y-54264655D01*
X123532927Y-54724846D01*
X124133453Y-54974206D01*
X124783694Y-54974774D01*
X125384655Y-54726462D01*
X125836905Y-54275000D01*
X127528865Y-54275000D01*
X127977927Y-54724846D01*
X128578453Y-54974206D01*
X129228694Y-54974774D01*
X129829655Y-54726462D01*
X130289846Y-54267073D01*
X130539206Y-53666547D01*
X130539774Y-53016306D01*
X130291462Y-52415345D01*
X129832073Y-51955154D01*
X129231547Y-51705794D01*
X128581306Y-51705226D01*
X127980345Y-51953538D01*
X127528095Y-52405000D01*
X125836135Y-52405000D01*
X125595000Y-52163444D01*
X125595000Y-48510132D01*
X126210790Y-47894342D01*
X126115648Y-48123469D01*
X126114994Y-48873241D01*
X126401314Y-49566191D01*
X126931021Y-50096822D01*
X127623469Y-50384352D01*
X128373241Y-50385006D01*
X129066191Y-50098686D01*
X129596822Y-49568979D01*
X129884352Y-48876531D01*
X129884354Y-48873241D01*
X131116254Y-48873241D01*
X131402574Y-49566191D01*
X131866260Y-50030686D01*
X131866260Y-52991260D01*
X131952657Y-53425606D01*
X131959308Y-53435560D01*
X131697434Y-53697434D01*
X131451397Y-54065654D01*
X131365000Y-54500000D01*
X131365000Y-62500000D01*
X131451397Y-62934346D01*
X131611560Y-63174046D01*
X131697434Y-63302566D01*
X132697434Y-64302567D01*
X133065655Y-64548604D01*
X133500000Y-64635000D01*
X134488655Y-64635000D01*
X140900895Y-64763245D01*
X140019202Y-67232560D01*
X139635000Y-67232560D01*
X139399683Y-67276838D01*
X139183559Y-67415910D01*
X139038569Y-67628110D01*
X138987560Y-67880000D01*
X138987560Y-69280000D01*
X139031838Y-69515317D01*
X139170910Y-69731441D01*
X139383110Y-69876431D01*
X139635000Y-69927440D01*
X140322308Y-69927440D01*
X142197434Y-71802566D01*
X142565654Y-72048603D01*
X143000000Y-72135000D01*
X148000000Y-72135000D01*
X148434346Y-72048603D01*
X148802566Y-71802566D01*
X150027566Y-70577566D01*
X150273604Y-70209345D01*
X150360000Y-69775000D01*
X150360000Y-69442767D01*
X150495000Y-69240725D01*
X150750302Y-69622811D01*
X151215849Y-69933880D01*
X151765000Y-70043113D01*
X152314151Y-69933880D01*
X152779698Y-69622811D01*
X153035000Y-69240725D01*
X153290302Y-69622811D01*
X153755849Y-69933880D01*
X154305000Y-70043113D01*
X154854151Y-69933880D01*
X155181728Y-69715000D01*
X158843516Y-69715000D01*
X159092927Y-69964846D01*
X159693453Y-70214206D01*
X160343694Y-70214774D01*
X160944655Y-69966462D01*
X161404846Y-69507073D01*
X161654206Y-68906547D01*
X161654774Y-68256306D01*
X161406462Y-67655345D01*
X161155000Y-67403444D01*
X161155000Y-62922815D01*
X167364630Y-62922815D01*
X167688980Y-63707800D01*
X168289041Y-64308909D01*
X169073459Y-64634628D01*
X169922815Y-64635370D01*
X170707800Y-64311020D01*
X171308909Y-63710959D01*
X171340450Y-63635000D01*
X174720000Y-63635000D01*
X174720000Y-67962573D01*
X174652440Y-68125276D01*
X174652440Y-67930000D01*
X174608162Y-67694683D01*
X174469090Y-67478559D01*
X174256890Y-67333569D01*
X174005000Y-67282560D01*
X172705000Y-67282560D01*
X172469683Y-67326838D01*
X172286054Y-67445000D01*
X171356484Y-67445000D01*
X171107073Y-67195154D01*
X170506547Y-66945794D01*
X169856306Y-66945226D01*
X169255345Y-67193538D01*
X168795154Y-67652927D01*
X168545794Y-68253453D01*
X168545226Y-68903694D01*
X168793538Y-69504655D01*
X169252927Y-69964846D01*
X169853453Y-70214206D01*
X170503694Y-70214774D01*
X171104655Y-69966462D01*
X171356556Y-69715000D01*
X172290025Y-69715000D01*
X172453110Y-69826431D01*
X172705000Y-69877440D01*
X174005000Y-69877440D01*
X174240317Y-69833162D01*
X174456441Y-69694090D01*
X174601431Y-69481890D01*
X174652440Y-69230000D01*
X174652440Y-69034540D01*
X174764995Y-69306943D01*
X175126155Y-69668735D01*
X175598276Y-69864777D01*
X176109481Y-69865223D01*
X176581943Y-69670005D01*
X176943735Y-69308845D01*
X177005541Y-69160000D01*
X181147796Y-69160000D01*
X181397637Y-69410278D01*
X181673856Y-69524974D01*
X181400057Y-69638106D01*
X180939722Y-70097637D01*
X180690284Y-70698352D01*
X180689716Y-71348795D01*
X180938106Y-71949943D01*
X181397637Y-72410278D01*
X181998352Y-72659716D01*
X182648795Y-72660284D01*
X183249943Y-72411894D01*
X183710278Y-71952363D01*
X183743453Y-71872468D01*
X186352073Y-71872468D01*
X187325000Y-72845395D01*
X188297927Y-71872468D01*
X188199264Y-71605613D01*
X187589539Y-71379092D01*
X186939540Y-71403144D01*
X186450736Y-71605613D01*
X186352073Y-71872468D01*
X183743453Y-71872468D01*
X183959716Y-71351648D01*
X183960284Y-70701205D01*
X183711894Y-70100057D01*
X183252363Y-69639722D01*
X182976144Y-69525026D01*
X183249943Y-69411894D01*
X183710278Y-68952363D01*
X183959716Y-68351648D01*
X183960284Y-67701205D01*
X183711894Y-67100057D01*
X183252363Y-66639722D01*
X182651648Y-66390284D01*
X182001205Y-66389716D01*
X181400057Y-66638106D01*
X181147722Y-66890000D01*
X176990000Y-66890000D01*
X176990000Y-63446414D01*
X177054363Y-63382163D01*
X185082443Y-63382163D01*
X185181042Y-63648965D01*
X185790582Y-63875401D01*
X186440377Y-63851341D01*
X186928958Y-63648965D01*
X187027557Y-63382163D01*
X186055000Y-62409605D01*
X185082443Y-63382163D01*
X177054363Y-63382163D01*
X177279846Y-63157073D01*
X177529206Y-62556547D01*
X177529722Y-61965582D01*
X184409599Y-61965582D01*
X184433659Y-62615377D01*
X184636035Y-63103958D01*
X184902837Y-63202557D01*
X185875395Y-62230000D01*
X186234605Y-62230000D01*
X187207163Y-63202557D01*
X187473965Y-63103958D01*
X187700401Y-62494418D01*
X187676341Y-61844623D01*
X187473965Y-61356042D01*
X187207163Y-61257443D01*
X186234605Y-62230000D01*
X185875395Y-62230000D01*
X184902837Y-61257443D01*
X184636035Y-61356042D01*
X184409599Y-61965582D01*
X177529722Y-61965582D01*
X177529774Y-61906306D01*
X177281462Y-61305345D01*
X177054351Y-61077837D01*
X185082443Y-61077837D01*
X186055000Y-62050395D01*
X187027557Y-61077837D01*
X186928958Y-60811035D01*
X186319418Y-60584599D01*
X185669623Y-60608659D01*
X185181042Y-60811035D01*
X185082443Y-61077837D01*
X177054351Y-61077837D01*
X177030000Y-61053444D01*
X177030000Y-54883239D01*
X177155492Y-54858277D01*
X177685759Y-54503964D01*
X178040072Y-53973697D01*
X178164490Y-53348205D01*
X178164490Y-52061795D01*
X178040072Y-51436303D01*
X177685759Y-50906036D01*
X177155492Y-50551723D01*
X176530000Y-50427305D01*
X175904508Y-50551723D01*
X175374241Y-50906036D01*
X175165290Y-51218753D01*
X175092434Y-51267434D01*
X174846397Y-51635655D01*
X174760000Y-52070000D01*
X174846397Y-52504345D01*
X174895510Y-52577848D01*
X174895510Y-52832151D01*
X174846397Y-52905654D01*
X174760000Y-53340000D01*
X174760000Y-57632598D01*
X174601746Y-57632598D01*
X174721099Y-57379246D01*
X174690153Y-57251441D01*
X174377042Y-56693644D01*
X173874305Y-56298129D01*
X173258480Y-56125110D01*
X172659040Y-56125110D01*
X172659040Y-57632600D01*
X172679040Y-57632600D01*
X172679040Y-57886600D01*
X172659040Y-57886600D01*
X172659040Y-59394090D01*
X173258480Y-59394090D01*
X173874305Y-59221071D01*
X174377042Y-58825556D01*
X174690153Y-58267759D01*
X174721099Y-58139954D01*
X174601746Y-57886602D01*
X174760000Y-57886602D01*
X174760000Y-61053516D01*
X174510154Y-61302927D01*
X174484379Y-61365000D01*
X171341100Y-61365000D01*
X171311020Y-61292200D01*
X170710959Y-60691091D01*
X169926541Y-60365372D01*
X169077185Y-60364630D01*
X168292200Y-60688980D01*
X167691091Y-61289041D01*
X167365372Y-62073459D01*
X167364630Y-62922815D01*
X161155000Y-62922815D01*
X161155000Y-58139954D01*
X170342981Y-58139954D01*
X170373927Y-58267759D01*
X170687038Y-58825556D01*
X171189775Y-59221071D01*
X171805600Y-59394090D01*
X172405040Y-59394090D01*
X172405040Y-57886600D01*
X170462335Y-57886600D01*
X170342981Y-58139954D01*
X161155000Y-58139954D01*
X161155000Y-57379246D01*
X170342981Y-57379246D01*
X170462335Y-57632600D01*
X172405040Y-57632600D01*
X172405040Y-56125110D01*
X171805600Y-56125110D01*
X171189775Y-56298129D01*
X170687038Y-56693644D01*
X170373927Y-57251441D01*
X170342981Y-57379246D01*
X161155000Y-57379246D01*
X161155000Y-53879669D01*
X161171441Y-53869090D01*
X161316431Y-53656890D01*
X161367440Y-53405000D01*
X161367440Y-52005000D01*
X161323162Y-51769683D01*
X161184090Y-51553559D01*
X161171983Y-51545287D01*
X161194868Y-49971491D01*
X161598082Y-49568979D01*
X161885612Y-48876531D01*
X161885614Y-48873241D01*
X163117514Y-48873241D01*
X163403834Y-49566191D01*
X163933541Y-50096822D01*
X164625989Y-50384352D01*
X165375761Y-50385006D01*
X166068711Y-50098686D01*
X166599342Y-49568979D01*
X166886872Y-48876531D01*
X166887526Y-48126759D01*
X166847858Y-48030754D01*
X170342981Y-48030754D01*
X170373927Y-48158559D01*
X170687038Y-48716356D01*
X171189775Y-49111871D01*
X171805600Y-49284890D01*
X172405040Y-49284890D01*
X172405040Y-47777400D01*
X172659040Y-47777400D01*
X172659040Y-49284890D01*
X173258480Y-49284890D01*
X173874305Y-49111871D01*
X174377042Y-48716356D01*
X174690153Y-48158559D01*
X174721099Y-48030754D01*
X174601745Y-47777400D01*
X172659040Y-47777400D01*
X172405040Y-47777400D01*
X170462335Y-47777400D01*
X170342981Y-48030754D01*
X166847858Y-48030754D01*
X166601206Y-47433809D01*
X166437729Y-47270046D01*
X170342981Y-47270046D01*
X170462335Y-47523400D01*
X172405040Y-47523400D01*
X172405040Y-46015910D01*
X172659040Y-46015910D01*
X172659040Y-47523400D01*
X174601745Y-47523400D01*
X174721099Y-47270046D01*
X174690153Y-47142241D01*
X174377042Y-46584444D01*
X173874305Y-46188929D01*
X173258480Y-46015910D01*
X172659040Y-46015910D01*
X172405040Y-46015910D01*
X171805600Y-46015910D01*
X171189775Y-46188929D01*
X170687038Y-46584444D01*
X170373927Y-47142241D01*
X170342981Y-47270046D01*
X166437729Y-47270046D01*
X166071499Y-46903178D01*
X165379051Y-46615648D01*
X164629279Y-46614994D01*
X163936329Y-46901314D01*
X163405698Y-47431021D01*
X163118168Y-48123469D01*
X163117514Y-48873241D01*
X161885614Y-48873241D01*
X161886266Y-48126759D01*
X161599946Y-47433809D01*
X161070239Y-46903178D01*
X160377791Y-46615648D01*
X159628019Y-46614994D01*
X158935069Y-46901314D01*
X158404438Y-47431021D01*
X158116908Y-48123469D01*
X158116254Y-48873241D01*
X158402574Y-49566191D01*
X158922942Y-50087466D01*
X158902121Y-51519313D01*
X158868559Y-51540910D01*
X158723569Y-51753110D01*
X158672560Y-52005000D01*
X158672560Y-53405000D01*
X158716838Y-53640317D01*
X158855910Y-53856441D01*
X158885000Y-53876317D01*
X158885000Y-67403516D01*
X158843444Y-67445000D01*
X155181728Y-67445000D01*
X154854151Y-67226120D01*
X154305000Y-67116887D01*
X153755849Y-67226120D01*
X153290302Y-67537189D01*
X153035000Y-67919275D01*
X152900000Y-67717233D01*
X152900000Y-66265000D01*
X152813603Y-65830654D01*
X152762863Y-65754716D01*
X152567566Y-65462433D01*
X150355132Y-63250000D01*
X155822566Y-57782566D01*
X156068603Y-57414346D01*
X156101007Y-57251441D01*
X156155000Y-56980000D01*
X156155000Y-53452807D01*
X156354768Y-52971713D01*
X156355231Y-52440617D01*
X156152418Y-51949771D01*
X156085911Y-51883148D01*
X156112539Y-50052418D01*
X156596822Y-49568979D01*
X156884352Y-48876531D01*
X156885006Y-48126759D01*
X156598686Y-47433809D01*
X156068979Y-46903178D01*
X155376531Y-46615648D01*
X154626759Y-46614994D01*
X153933809Y-46901314D01*
X153403178Y-47431021D01*
X153115648Y-48123469D01*
X153114994Y-48873241D01*
X153401314Y-49566191D01*
X153842937Y-50008584D01*
X153812038Y-52132906D01*
X153685232Y-52438287D01*
X153684769Y-52969383D01*
X153885000Y-53453980D01*
X153885000Y-56509868D01*
X148456449Y-61938419D01*
X148281547Y-61865794D01*
X147631306Y-61865226D01*
X147030345Y-62113538D01*
X146570154Y-62572927D01*
X146320794Y-63173453D01*
X146320226Y-63823694D01*
X146568538Y-64424655D01*
X147027927Y-64884846D01*
X147628453Y-65134206D01*
X148278694Y-65134774D01*
X148810078Y-64915211D01*
X150630000Y-66735133D01*
X150630000Y-67717233D01*
X150495000Y-67919275D01*
X150239698Y-67537189D01*
X149774151Y-67226120D01*
X149225000Y-67116887D01*
X148675849Y-67226120D01*
X148210302Y-67537189D01*
X147940014Y-67941703D01*
X147837389Y-67724866D01*
X147422423Y-67348959D01*
X147034039Y-67188096D01*
X146812000Y-67310085D01*
X146812000Y-68453000D01*
X146832000Y-68453000D01*
X146832000Y-68707000D01*
X146812000Y-68707000D01*
X146812000Y-68727000D01*
X146558000Y-68727000D01*
X146558000Y-68707000D01*
X145414371Y-68707000D01*
X145293086Y-68929041D01*
X145532611Y-69435134D01*
X145947577Y-69811041D01*
X146077854Y-69865000D01*
X143470132Y-69865000D01*
X142004935Y-68399803D01*
X142018604Y-68379345D01*
X142024194Y-68351244D01*
X142038905Y-68326663D01*
X142073077Y-68230959D01*
X145293086Y-68230959D01*
X145414371Y-68453000D01*
X146558000Y-68453000D01*
X146558000Y-67310085D01*
X146335961Y-67188096D01*
X145947577Y-67348959D01*
X145532611Y-67724866D01*
X145293086Y-68230959D01*
X142073077Y-68230959D01*
X143173005Y-65150442D01*
X143424655Y-65046462D01*
X143884846Y-64587073D01*
X144134206Y-63986547D01*
X144134774Y-63336306D01*
X143886462Y-62735345D01*
X143427073Y-62275154D01*
X142826547Y-62025794D01*
X142176306Y-62025226D01*
X141575345Y-62273538D01*
X141346776Y-62501709D01*
X134522695Y-62365227D01*
X134511326Y-62367253D01*
X134500000Y-62365000D01*
X133970133Y-62365000D01*
X133635000Y-62029868D01*
X133635000Y-54970132D01*
X133967693Y-54637440D01*
X134000000Y-54637440D01*
X134235317Y-54593162D01*
X134451441Y-54454090D01*
X134596431Y-54241890D01*
X134597012Y-54239016D01*
X135130590Y-54239016D01*
X135186271Y-54469611D01*
X135669078Y-54637622D01*
X136179428Y-54608083D01*
X136513729Y-54469611D01*
X136569410Y-54239016D01*
X135850000Y-53519605D01*
X135130590Y-54239016D01*
X134597012Y-54239016D01*
X134647440Y-53990000D01*
X134647440Y-53827615D01*
X134720389Y-54003729D01*
X134950984Y-54059410D01*
X135670395Y-53340000D01*
X136029605Y-53340000D01*
X136749016Y-54059410D01*
X136979611Y-54003729D01*
X137147622Y-53520922D01*
X137118083Y-53010572D01*
X136979611Y-52676271D01*
X136749016Y-52620590D01*
X136029605Y-53340000D01*
X135670395Y-53340000D01*
X134950984Y-52620590D01*
X134720389Y-52676271D01*
X134647440Y-52885902D01*
X134647440Y-52690000D01*
X134603162Y-52454683D01*
X134594347Y-52440984D01*
X135130590Y-52440984D01*
X135850000Y-53160395D01*
X136569410Y-52440984D01*
X136513729Y-52210389D01*
X136030922Y-52042378D01*
X135520572Y-52071917D01*
X135186271Y-52210389D01*
X135130590Y-52440984D01*
X134594347Y-52440984D01*
X134464090Y-52238559D01*
X134251890Y-52093569D01*
X134136260Y-52070153D01*
X134136260Y-50029997D01*
X134333511Y-49833089D01*
X136849037Y-49833089D01*
X136978245Y-50125859D01*
X137678403Y-50394071D01*
X138427904Y-50373928D01*
X139026795Y-50125859D01*
X139156003Y-49833089D01*
X138002520Y-48679605D01*
X136849037Y-49833089D01*
X134333511Y-49833089D01*
X134598082Y-49568979D01*
X134885612Y-48876531D01*
X134886223Y-48175883D01*
X136108449Y-48175883D01*
X136128592Y-48925384D01*
X136376661Y-49524275D01*
X136669431Y-49653483D01*
X137822915Y-48500000D01*
X138182125Y-48500000D01*
X139335609Y-49653483D01*
X139628379Y-49524275D01*
X139896591Y-48824117D01*
X139876448Y-48074616D01*
X139628379Y-47475725D01*
X139335609Y-47346517D01*
X138182125Y-48500000D01*
X137822915Y-48500000D01*
X136669431Y-47346517D01*
X136376661Y-47475725D01*
X136108449Y-48175883D01*
X134886223Y-48175883D01*
X134886266Y-48126759D01*
X134599946Y-47433809D01*
X134333513Y-47166911D01*
X136849037Y-47166911D01*
X138002520Y-48320395D01*
X139156003Y-47166911D01*
X139026795Y-46874141D01*
X138326637Y-46605929D01*
X137577136Y-46626072D01*
X136978245Y-46874141D01*
X136849037Y-47166911D01*
X134333513Y-47166911D01*
X134070239Y-46903178D01*
X133377791Y-46615648D01*
X132628019Y-46614994D01*
X131935069Y-46901314D01*
X131404438Y-47431021D01*
X131116908Y-48123469D01*
X131116254Y-48873241D01*
X129884354Y-48873241D01*
X129885006Y-48126759D01*
X129598686Y-47433809D01*
X129068979Y-46903178D01*
X128376531Y-46615648D01*
X127626759Y-46614994D01*
X127393939Y-46711193D01*
X128970132Y-45135000D01*
X141029868Y-45135000D01*
X141365000Y-45470133D01*
X141365000Y-52323516D01*
X141323444Y-52365000D01*
X139500000Y-52365000D01*
X139119849Y-52440617D01*
X139065654Y-52451397D01*
X138697433Y-52697434D01*
X135197434Y-56197434D01*
X134951397Y-56565654D01*
X134865000Y-57000000D01*
X134865000Y-58935025D01*
X134753569Y-59098110D01*
X134702560Y-59350000D01*
X134702560Y-60650000D01*
X134746838Y-60885317D01*
X134885910Y-61101441D01*
X135098110Y-61246431D01*
X135169599Y-61260908D01*
X135197434Y-61302566D01*
X135565654Y-61548603D01*
X136000000Y-61635000D01*
X136434346Y-61548603D01*
X136802566Y-61302566D01*
X136828424Y-61263867D01*
X136885317Y-61253162D01*
X137101441Y-61114090D01*
X137246431Y-60901890D01*
X137247012Y-60899016D01*
X137780590Y-60899016D01*
X137836271Y-61129611D01*
X138319078Y-61297622D01*
X138829428Y-61268083D01*
X139163729Y-61129611D01*
X139219410Y-60899016D01*
X138500000Y-60179605D01*
X137780590Y-60899016D01*
X137247012Y-60899016D01*
X137297440Y-60650000D01*
X137297440Y-60487615D01*
X137370389Y-60663729D01*
X137600984Y-60719410D01*
X138320395Y-60000000D01*
X138679605Y-60000000D01*
X139399016Y-60719410D01*
X139629611Y-60663729D01*
X139797622Y-60180922D01*
X139768083Y-59670572D01*
X139629611Y-59336271D01*
X139399016Y-59280590D01*
X138679605Y-60000000D01*
X138320395Y-60000000D01*
X137600984Y-59280590D01*
X137370389Y-59336271D01*
X137297440Y-59545902D01*
X137297440Y-59350000D01*
X137253162Y-59114683D01*
X137244347Y-59100984D01*
X137780590Y-59100984D01*
X138500000Y-59820395D01*
X139219410Y-59100984D01*
X139163729Y-58870389D01*
X138680922Y-58702378D01*
X138170572Y-58731917D01*
X137836271Y-58870389D01*
X137780590Y-59100984D01*
X137244347Y-59100984D01*
X137135000Y-58931054D01*
X137135000Y-57470132D01*
X139970133Y-54635000D01*
X141323516Y-54635000D01*
X141572927Y-54884846D01*
X142173453Y-55134206D01*
X142823694Y-55134774D01*
X143424655Y-54886462D01*
X143884846Y-54427073D01*
X144134206Y-53826547D01*
X144134348Y-53663694D01*
X146320226Y-53663694D01*
X146568538Y-54264655D01*
X147027927Y-54724846D01*
X147628453Y-54974206D01*
X148278694Y-54974774D01*
X148879655Y-54726462D01*
X149339846Y-54267073D01*
X149589206Y-53666547D01*
X149589774Y-53016306D01*
X149341462Y-52415345D01*
X149090000Y-52163444D01*
X149090000Y-50594975D01*
X149201431Y-50431890D01*
X149252440Y-50180000D01*
X149252440Y-48880000D01*
X149208162Y-48644683D01*
X149069090Y-48428559D01*
X148856890Y-48283569D01*
X148605000Y-48232560D01*
X148442615Y-48232560D01*
X148618729Y-48159611D01*
X148674410Y-47929016D01*
X147955000Y-47209605D01*
X147235590Y-47929016D01*
X147291271Y-48159611D01*
X147500902Y-48232560D01*
X147305000Y-48232560D01*
X147069683Y-48276838D01*
X146853559Y-48415910D01*
X146708569Y-48628110D01*
X146657560Y-48880000D01*
X146657560Y-50180000D01*
X146701838Y-50415317D01*
X146820000Y-50598946D01*
X146820000Y-52163516D01*
X146570154Y-52412927D01*
X146320794Y-53013453D01*
X146320226Y-53663694D01*
X144134348Y-53663694D01*
X144134774Y-53176306D01*
X143886462Y-52575345D01*
X143635000Y-52323444D01*
X143635000Y-46849078D01*
X146657378Y-46849078D01*
X146686917Y-47359428D01*
X146825389Y-47693729D01*
X147055984Y-47749410D01*
X147775395Y-47030000D01*
X148134605Y-47030000D01*
X148854016Y-47749410D01*
X149084611Y-47693729D01*
X149252622Y-47210922D01*
X149223083Y-46700572D01*
X149084611Y-46366271D01*
X148854016Y-46310590D01*
X148134605Y-47030000D01*
X147775395Y-47030000D01*
X147055984Y-46310590D01*
X146825389Y-46366271D01*
X146657378Y-46849078D01*
X143635000Y-46849078D01*
X143635000Y-46130984D01*
X147235590Y-46130984D01*
X147955000Y-46850395D01*
X148674410Y-46130984D01*
X148618729Y-45900389D01*
X148135922Y-45732378D01*
X147625572Y-45761917D01*
X147291271Y-45900389D01*
X147235590Y-46130984D01*
X143635000Y-46130984D01*
X143635000Y-45000000D01*
X143595728Y-44802566D01*
X143548604Y-44565655D01*
X143302567Y-44197434D01*
X142302566Y-43197434D01*
X141934346Y-42951397D01*
X141500000Y-42865000D01*
X128500000Y-42865000D01*
X128065654Y-42951397D01*
X127697434Y-43197434D01*
X123657434Y-47237434D01*
X123411397Y-47605654D01*
X123325000Y-48040000D01*
X123325000Y-52163516D01*
X123075154Y-52412927D01*
X122825794Y-53013453D01*
X122825226Y-53663694D01*
X110028835Y-53663694D01*
X110126019Y-41127000D01*
X194372012Y-41127000D01*
X193873981Y-105373000D01*
M02*
